<svg xmlns="http://www.w3.org/2000/svg"  viewBox="0 0 100 100" width="200px" height="200px"><path d="M16.5,93c-3.584,0-6.5-2.916-6.5-6.5V72.494c0-3.584,2.916-6.5,6.5-6.5 c0.083,0,0.166,0.002,0.25,0.005c0.084-0.003,0.167-0.005,0.25-0.005c0.725,0,1.1-0.322,1.289-0.603 c1.122-2.048,3.259-3.34,5.612-3.391L24.048,62c0.322,0.002,0.641,0.028,0.952,0.076V59.5c0-4.463-3.482-8.188-7.928-8.481 C13.668,50.795,11,47.946,11,44.533V17.5c0-3.584,2.916-6.5,6.5-6.5h69c3.584,0,6.5,2.916,6.5,6.5v27.033 c0,3.413-2.668,6.262-6.073,6.486C82.482,51.312,79,55.037,79,59.5v2.581c0.336-0.053,0.68-0.08,1.027-0.08l0.365,0.01 C82.755,62.155,83.985,63.902,85,66c0.166,0.114,1.463-0.032,2.295-0.005l0.205-0.001c3.584,0,6.5,2.916,6.5,6.5V86.5 c0,3.584-2.916,6.5-6.5,6.5H16.5z" opacity=".35"/><path fill="#f2f2f2" d="M14.5,91C10.916,91,8,88.084,8,84.5V70.494c0-3.584,2.916-6.5,6.5-6.5 c0.083,0,0.166,0.002,0.25,0.005c0.084-0.003,0.167-0.005,0.25-0.005c0.725,0,1.1-0.322,1.289-0.603 c1.122-2.048,3.259-3.34,5.612-3.391L22.048,60c0.322,0.002,0.641,0.028,0.952,0.076V57.5c0-4.463-3.482-8.188-7.928-8.481 C11.668,48.795,9,45.946,9,42.533V15.5C9,11.916,11.916,9,15.5,9h69c3.584,0,6.5,2.916,6.5,6.5v27.033 c0,3.413-2.668,6.262-6.073,6.486C80.482,49.312,77,53.037,77,57.5v2.581c0.336-0.053,0.68-0.08,1.027-0.08l0.365,0.01 c2.362,0.144,4.445,1.557,5.46,3.655c0.166,0.114,0.61,0.302,1.442,0.329l0.205-0.001c3.584,0,6.5,2.916,6.5,6.5V84.5 c0,3.584-2.916,6.5-6.5,6.5H14.5z"/><path fill="#ff7575" d="M15.5,15.5v27.033c7.818,0.515,14,7.019,14,18.967v13h13V50c0-4.142,3.358-7.5,7.5-7.5 s7.5,3.358,7.5,7.5v23.876h13V57.5c0-7.948,6.182-14.453,14-14.967V15.5H15.5z"/><path fill="#70bfff" d="M84,71.94C79.734,71.457,78,68,78,68s-2,4-7,4s-7-4-7-4s-2,4-7,4s-7-4-7-4s-2,4-7,4s-7-4-7-4 s-2,4-7,4s-7-4-7-4s-2,4-7,4v13h69V71.94z"/><path fill="#40396e" d="M84,76.377C82.951,77.534,81.029,79,78,79c-5,0-7-4-7-4s-2,4-7,4s-7-4-7-4s-2,4-7,4 s-7-4-7-4s-2,4-7,4s-7-4-7-4s-2,4-7,4s-7-4-7-4h0v9.5h69V76.377z" opacity=".35"/><polyline fill="none" stroke="#40396e" stroke-linecap="round" stroke-linejoin="round" stroke-miterlimit="10" stroke-width="3" points="14.5,70.494 14.5,84.5 85.5,84.5 85.5,70.494"/><path fill="none" stroke="#40396e" stroke-linecap="round" stroke-linejoin="round" stroke-miterlimit="10" stroke-width="3" d="M29,70.494c-5,0-7-4-7-4s-2,4-7,4"/><path fill="none" stroke="#40396e" stroke-linecap="round" stroke-linejoin="round" stroke-miterlimit="10" stroke-width="3" d="M57,70.494c-5,0-7-4-7-4s-2,4-7,4"/><path fill="none" stroke="#40396e" stroke-linecap="round" stroke-linejoin="round" stroke-miterlimit="10" stroke-width="3" d="M85.5,70.5c-6,0-7.5-4.006-7.5-4.006s-2,4-7,4"/><path fill="none" stroke="#40396e" stroke-linecap="round" stroke-linejoin="round" stroke-miterlimit="10" stroke-width="3" d="M42.5,70.5V50c0-4.142,3.358-7.5,7.5-7.5h0c4.142,0,7.5,3.358,7.5,7.5v20.5"/><path fill="none" stroke="#40396e" stroke-linecap="round" stroke-linejoin="round" stroke-miterlimit="10" stroke-width="3" d="M29.5,70.5v-13c0-7.948-6.182-14.453-14-14.967l0-27.033h69v27.033c-7.818,0.515-14,7.019-14,14.967v13"/><rect width="6" height="8" x="22" y="22" fill="#f2f2f2"/><rect width="6" height="8" x="32" y="22" fill="#f2f2f2"/><rect width="6" height="8" x="42" y="22" fill="#f2f2f2"/><rect width="6" height="8" x="52" y="22" fill="#f2f2f2"/><rect width="6" height="8" x="62" y="22" fill="#f2f2f2"/><rect width="6" height="8" x="72" y="22" fill="#f2f2f2"/><path fill="#40396e" d="M50,41c-4.963,0-9,4.038-9,9v20.5c0,0.829,0.672,1.5,1.5,1.5c0.096,0,0.188-0.011,0.279-0.028 c0.073,0.011,0.145,0.022,0.221,0.022c3.47,0,5.721-1.624,7-2.99c1.279,1.366,3.53,2.99,7,2.99c0.076,0,0.148-0.011,0.221-0.022 C57.312,71.989,57.404,72,57.5,72c0.828,0,1.5-0.671,1.5-1.5V50C59,45.038,54.963,41,50,41z M51.342,65.823 c-0.252-0.504-0.769-0.819-1.333-0.824c-0.004,0-0.008,0-0.012,0c-0.56,0-1.075,0.317-1.334,0.814 c-0.061,0.118-1.425,2.652-4.663,3.105V50c0-3.309,2.691-6,6-6s6,2.691,6,6v18.918C52.762,68.466,51.399,65.933,51.342,65.823z"/></svg>