<svg xmlns="http://www.w3.org/2000/svg"  viewBox="0 0 100 100" width="200px" height="200px"><path d="M17.5,93c-3.584,0-6.5-2.916-6.5-6.5v-30c0-3.584,2.916-6.5,6.5-6.5H24V34.5 c0-3.584,2.916-6.5,6.5-6.5H38v-4.5c0-3.584,2.916-6.5,6.5-6.5H47v-5.5C47,7.916,49.916,5,53.5,5S60,7.916,60,11.5V17h2.5 c3.584,0,6.5,2.916,6.5,6.5V43h8.5c3.584,0,6.5,2.916,6.5,6.5V58h2.5c3.584,0,6.5,2.916,6.5,6.5v22c0,3.584-2.916,6.5-6.5,6.5H17.5 z" opacity=".35"/><path fill="#f2f2f2" d="M15.5,91C11.916,91,9,88.084,9,84.5v-30c0-3.584,2.916-6.5,6.5-6.5H22V32.5 c0-3.584,2.916-6.5,6.5-6.5H36v-4.5c0-3.584,2.916-6.5,6.5-6.5H45V9.5C45,5.916,47.916,3,51.5,3S58,5.916,58,9.5V15h2.5 c3.584,0,6.5,2.916,6.5,6.5V41h8.5c3.584,0,6.5,2.916,6.5,6.5V56h2.5c3.584,0,6.5,2.916,6.5,6.5v22c0,3.584-2.916,6.5-6.5,6.5H15.5 z"/><rect width="16" height="29" x="17" y="54" fill="#ffb136"/><polygon fill="#9aa2e6" points="60.5,85.5 42.5,84.5 42.5,21.5 60.5,22.5"/><rect width="14" height="51" x="30" y="32" fill="#70bfff"/><polygon fill="#707cc0" points="59,47 59,84.5 76,84 75.5,47.5"/><line x1="51.5" x2="51.5" y1="21.5" y2="9.5" fill="none" stroke="#40396e" stroke-linecap="round" stroke-miterlimit="10" stroke-width="3"/><rect width="5" height="5" x="21" y="62" fill="#d9eeff"/><rect width="5" height="5" x="21" y="73" fill="#d9eeff"/><rect width="6" height="3" x="34" y="40" fill="#d9eeff"/><rect width="6" height="3" x="34" y="47" fill="#d9eeff"/><rect width="6" height="3" x="34" y="54" fill="#d9eeff"/><rect width="6" height="3" x="34" y="61" fill="#d9eeff"/><rect width="6" height="3" x="34" y="68" fill="#d9eeff"/><rect width="6" height="3" x="34" y="75" fill="#d9eeff"/><rect width="16" height="20" x="68" y="64" fill="#ff7575"/><polygon fill="none" stroke="#40396e" stroke-linecap="round" stroke-linejoin="round" stroke-miterlimit="10" stroke-width="3" points="75.5,62.5 75.5,47.5 60.5,47.5 60.5,21.5 42.5,21.5 42.5,32.5 28.5,32.5 28.5,54.5 15.5,54.5 15.5,84.5 84.5,84.5 84.5,62.5"/><rect width="3" height="4" x="71" y="68" fill="#d9eeff"/><rect width="3" height="4" x="77" y="68" fill="#d9eeff"/><rect width="3" height="3" x="62" y="52" fill="#d9eeff"/><rect width="3" height="3" x="68" y="52" fill="#d9eeff"/><rect width="3" height="3" x="62" y="58" fill="#d9eeff"/><rect width="3" height="3" x="62" y="64" fill="#d9eeff"/><rect width="3" height="3" x="62" y="70" fill="#d9eeff"/><rect width="3" height="3" x="62" y="76" fill="#d9eeff"/><rect width="3" height="3" x="68" y="58" fill="#d9eeff"/><rect width="3" height="4" x="71" y="76" fill="#d9eeff"/><rect width="3" height="4" x="77" y="76" fill="#d9eeff"/><rect width="3" height="8" x="53" y="26" fill="#d9eeff"/><rect width="3" height="8" x="47" y="26" fill="#d9eeff"/><rect width="3" height="8" x="53" y="37" fill="#d9eeff"/><rect width="3" height="8" x="47" y="37" fill="#d9eeff"/><rect width="3" height="8" x="53" y="48" fill="#d9eeff"/><rect width="3" height="8" x="47" y="48" fill="#d9eeff"/><rect width="3" height="8" x="53" y="59" fill="#d9eeff"/><rect width="3" height="8" x="47" y="59" fill="#d9eeff"/><rect width="3" height="8" x="53" y="70" fill="#d9eeff"/><rect width="3" height="8" x="47" y="70" fill="#d9eeff"/></svg>