<svg xmlns="http://www.w3.org/2000/svg"  viewBox="0 0 100 100" width="200px" height="200px"><path d="M15.5,93C10.813,93,7,89.187,7,84.5v-60c0-4.687,3.813-8.5,8.5-8.5h17c3.036,0,5.705,1.6,7.208,4 h23.583c1.504-2.4,4.173-4,7.208-4h18c4.687,0,8.5,3.813,8.5,8.5v60c0,4.687-3.813,8.5-8.5,8.5H15.5z" opacity=".35"/><path fill="#f2f2f2" d="M13.5,91C8.813,91,5,87.187,5,82.5v-60c0-4.687,3.813-8.5,8.5-8.5h17c3.036,0,5.705,1.6,7.208,4 h23.583c1.504-2.4,4.173-4,7.208-4h18c4.687,0,8.5,3.813,8.5,8.5v60c0,4.687-3.813,8.5-8.5,8.5H13.5z"/><rect width="42" height="50" x="29" y="25" fill="#70bfff"/><rect width="20" height="52" x="11" y="21" fill="#d47f56"/><circle cx="50" cy="63" r="9" fill="#fff"/><circle cx="37.5" cy="64.5" r="7.5" fill="#fff"/><circle cx="27" cy="67" r="6" fill="#fff"/><rect width="20" height="52" x="68" y="21" fill="#d47f56"/><circle cx="63.5" cy="64.5" r="7.5" fill="#fff"/><circle cx="74" cy="67" r="6" fill="#fff"/><path fill="#70bfff" d="M11,83l0.004-15.434c1.527,1.068,3.637,1.961,6.424,1.961c4.045,0,6.663-1.879,8.144-3.449 c1.481,1.57,4.098,3.449,8.143,3.449s6.663-1.879,8.144-3.449c1.481,1.57,4.099,3.449,8.144,3.449s6.663-1.879,8.143-3.449 c1.481,1.57,4.099,3.449,8.144,3.449s6.663-1.879,8.144-3.449c1.481,1.57,4.098,3.449,8.143,3.449c2.786,0,4.896-0.892,6.423-1.96 V83H11z"/><path fill="none" stroke="#40396e" stroke-linecap="round" stroke-linejoin="round" stroke-miterlimit="10" stroke-width="3" d="M66.5,22.5v2h-34v-2c0-1.105-0.895-2-2-2h-17c-1.105,0-2,0.895-2,2v60c0,1.105,0.895,2,2,2h73c1.105,0,2-0.895,2-2v-60 c0-1.105-0.895-2-2-2h-18C67.395,20.5,66.5,21.395,66.5,22.5z"/><circle cx="36.393" cy="51.067" r="2.404" fill="#fff"/><circle cx="63.596" cy="41.404" r="2.404" fill="#fff"/><circle cx="25.5" cy="48.5" r="2.5" fill="#fff"/><circle cx="54.803" cy="48.5" r="2.5" fill="#fff"/><circle cx="74.202" cy="51.5" r="2.5" fill="#fff"/><circle cx="42.5" cy="42.5" r="2.5" fill="#fff"/></svg>