<svg xmlns="http://www.w3.org/2000/svg"  viewBox="0 0 100 100" width="200px" height="200px"><path d="M64.2,86C63,86,62,85.7,61,85.2c-1,0.5-2,0.8-3.2,0.8H16.5C10.7,86,6,81.3,6,75.5V62c0-3.6,2.9-6.5,6.5-6.5	c1.4,0,2.5-1.1,2.5-2.5s-1.1-2.5-2.5-2.5C8.9,50.5,6,47.6,6,44V28.5C6,22.7,10.7,18,16.5,18h41.3c1.1,0,2.2,0.3,3.2,0.8	c1-0.5,2-0.8,3.2-0.8h23.3C93.3,18,98,22.7,98,28.5v16c0,3.6-2.9,6.5-6.5,6.5c-1.4,0-2.5,1.1-2.5,2.5s1.1,2.5,2.5,2.5	c3.6,0,6.5,2.9,6.5,6.5v13C98,81.3,93.3,86,87.5,86H64.2z" opacity=".35"/><path fill="#f2f2f2" d="M62.2,84C61,84,60,83.7,59,83.2c-1,0.5-2,0.8-3.2,0.8H14.5C8.7,84,4,79.3,4,73.5V60c0-3.6,2.9-6.5,6.5-6.5	c1.4,0,2.5-1.1,2.5-2.5s-1.1-2.5-2.5-2.5C6.9,48.5,4,45.6,4,42V26.5C4,20.7,8.7,16,14.5,16h41.3c1.1,0,2.2,0.3,3.2,0.8	c1-0.5,2-0.8,3.2-0.8h23.3C91.3,16,96,20.7,96,26.5v16c0,3.6-2.9,6.5-6.5,6.5c-1.4,0-2.5,1.1-2.5,2.5s1.1,2.5,2.5,2.5	c3.6,0,6.5,2.9,6.5,6.5v13C96,79.3,91.3,84,85.5,84H62.2z"/><path fill="#ffc571" d="M89.5,42.5v-16c0-2.2-1.8-4-4-4H62.1L59,24.2l-3-1.7H15.4c-2.7,0-4.9,2.2-4.9,4.9V42c5,0,9,4,9,9s-4,9-9,9v12.6	c0,2.7,2.2,4.9,4.9,4.9H56l3-1.5l4,1.5h22.5c2.2,0,4-1.8,4-4v-13c-5,0-9-4-9-9S84.5,42.5,89.5,42.5z"/><circle cx="59" cy="30" r="2" fill="#f2f2f2"/><circle cx="59" cy="38" r="2" fill="#f2f2f2"/><circle cx="59" cy="46" r="2" fill="#f2f2f2"/><circle cx="59" cy="54" r="2" fill="#f2f2f2"/><circle cx="59" cy="62" r="2" fill="#f2f2f2"/><circle cx="59" cy="70" r="2" fill="#f2f2f2"/><path fill="#40396e" d="M85.5,79H62.2c-0.6,0-1.1-0.3-1.4-0.8c-0.3-0.7-1-1.2-1.8-1.2s-1.5,0.4-1.8,1.2c-0.3,0.5-0.8,0.8-1.4,0.8H14.5	c-3,0-5.5-2.5-5.5-5.5V60c0-0.8,0.7-1.5,1.5-1.5c4.1,0,7.5-3.4,7.5-7.5s-3.4-7.5-7.5-7.5C9.7,43.5,9,42.8,9,42V26.5	c0-3,2.5-5.5,5.5-5.5h41.3c0.6,0,1.1,0.3,1.4,0.8c0.3,0.7,1,1.2,1.8,1.2s1.5-0.4,1.8-1.2c0.3-0.5,0.8-0.8,1.4-0.8h23.3	c3,0,5.5,2.5,5.5,5.5v16c0,0.8-0.7,1.5-1.5,1.5c-4.1,0-7.5,3.4-7.5,7.5s3.4,7.5,7.5,7.5c0.8,0,1.5,0.7,1.5,1.5v13	C91,76.5,88.5,79,85.5,79z M63,76h22.5c1.4,0,2.5-1.1,2.5-2.5V61.9c-5.1-0.7-9-5.1-9-10.4s3.9-9.7,9-10.4V26.5	c0-1.4-1.1-2.5-2.5-2.5H63c-0.9,1.3-2.4,2-4,2s-3.1-0.7-4-2H14.5c-1.4,0-2.5,1.1-2.5,2.5v14.1c5.1,0.7,9,5.1,9,10.4s-3.9,9.7-9,10.4	v12.1c0,1.4,1.1,2.5,2.5,2.5H55c0.9-1.3,2.4-2,4-2C60.6,74,62.1,74.7,63,76z"/><path fill="#40396e" d="M68.1,57.7c-0.9,0-1.4-0.5-1.4-1.4c0-0.9,0.5-1.4,1.4-1.4h2.2v-8.7l-1.6,0.9c-0.4,0.2-0.8,0.3-1.1,0.2 c-0.3-0.1-0.6-0.3-0.8-0.6c-0.2-0.3-0.2-0.7-0.2-1s0.3-0.7,0.7-0.9l3-1.8c0.3-0.2,0.6-0.3,0.9-0.5c0.3-0.1,0.6-0.2,0.9-0.2 c0.4,0,0.8,0.1,1,0.3c0.3,0.2,0.4,0.6,0.4,1v11.3h2c0.9,0,1.4,0.5,1.4,1.4c0,0.9-0.5,1.4-1.4,1.4H68.1z"/><line x1="26.6" x2="50" y1="50" y2="50" fill="none" stroke="#e66f2e" stroke-linecap="round" stroke-linejoin="round" stroke-miterlimit="10" stroke-width="3"/><line x1="26.6" x2="50" y1="42.6" y2="42.6" fill="none" stroke="#e66f2e" stroke-linecap="round" stroke-linejoin="round" stroke-miterlimit="10" stroke-width="3"/><line x1="26.6" x2="40.3" y1="57.4" y2="57.4" fill="none" stroke="#e66f2e" stroke-linecap="round" stroke-linejoin="round" stroke-miterlimit="10" stroke-width="3"/></svg>