<svg xmlns="http://www.w3.org/2000/svg"  viewBox="0 0 100 100" width="200px" height="200px"><path d="M52,98.826c-6.88,0-12.461-3.027-16.707-6.715 c-0.527,3.081-3.194,5.389-6.405,5.389H16.714c-1.839,0-3.599-0.783-4.83-2.149c-1.232-1.369-1.827-3.202-1.635-5.03l2.867-27.236 c-3.783-3.992-5.855-9.376-5.893-15.446c-0.04-6.424,2.271-12.931,6.194-17.826c-0.888-2.057-1.346-4.284-1.346-6.598 c0-9.216,7.498-16.714,16.714-16.714c4.842,0,9.376,2.09,12.506,5.623c0.472-0.034,0.947-0.052,1.422-0.052 c4.023,0,7.052,0.854,9.286,1.956c2.233-1.102,5.262-1.956,9.286-1.956c0.476,0,0.95,0.018,1.422,0.052 C65.838,8.591,70.373,6.5,75.214,6.5c9.216,0,16.714,7.498,16.714,16.714c0,2.31-0.457,4.533-1.342,6.588 c4.283,5.305,6.584,12.391,6.136,19.353c-0.402,6.241-2.964,11.577-7.299,15.33l2.719,25.835c0.192,1.829-0.403,3.662-1.633,5.029 c-1.232,1.368-2.993,2.151-4.832,2.151H74.537c-3.006,0-5.574-2.068-6.297-4.888C63.353,96.641,57.765,98.826,52,98.826z" opacity=".35"/><path fill="#f2f2f2" d="M50,96.826c-6.88,0-12.461-3.027-16.707-6.715c-0.527,3.081-3.194,5.389-6.405,5.389H14.714 c-1.839,0-3.599-0.783-4.83-2.149c-1.232-1.369-1.827-3.202-1.635-5.03l2.867-27.236c-3.783-3.992-5.855-9.376-5.893-15.446 c-0.04-6.424,2.271-12.931,6.194-17.826c-0.888-2.057-1.346-4.284-1.346-6.598c0-9.216,7.498-16.714,16.714-16.714 c4.842,0,9.376,2.09,12.506,5.623c0.472-0.034,0.947-0.052,1.422-0.052c4.023,0,7.052,0.854,9.286,1.956 c2.233-1.102,5.262-1.956,9.286-1.956c0.476,0,0.95,0.018,1.422,0.052C63.838,6.591,68.373,4.5,73.214,4.5 c9.216,0,16.714,7.498,16.714,16.714c0,2.31-0.457,4.533-1.342,6.588c4.283,5.305,6.584,12.391,6.136,19.353 c-0.402,6.241-2.964,11.577-7.299,15.33l2.719,25.835c0.192,1.829-0.403,3.662-1.633,5.029c-1.232,1.368-2.993,2.151-4.832,2.151 H72.537c-3.006,0-5.574-2.068-6.297-4.888C61.353,94.641,55.765,96.826,50,96.826z"/><polygon fill="#f9b84f" points="79.965,53.714 83.679,89 72.536,89 69.865,50.281"/><polygon fill="#f9b84f" points="18.429,53.714 14.714,89 25.857,89 28.607,50.281"/><path fill="#fedeb3" d="M72.286,61.143c3.077,0,5.571,2.494,5.571,5.571c0,3.077-2.494,5.571-5.571,5.571 s-5.571,3.218-5.571,0.141S69.209,61.143,72.286,61.143z"/><path fill="#fedeb3" d="M27.714,61.143c3.077,0,5.571,8.578,5.571,11.655c0,3.077-2.494-0.512-5.571-0.512 s-5.571-2.494-5.571-5.571C22.143,63.637,24.637,61.143,27.714,61.143z"/><path fill="#fedeb3" d="M76,53.714C76,53.714,70.429,89,50,89V30.344L76,53.714z"/><path fill="#fedeb3" d="M24,53.714C24,53.714,29.571,89,50,89V30.344L24,53.714z"/><path fill="#ef8630" d="M83.429,21.214c0,5.642-4.572,10.214-10.214,10.214S63,26.856,63,21.214S67.572,11,73.214,11 S83.429,15.572,83.429,21.214z M26.786,11c-5.642,0-10.214,4.572-10.214,10.214s4.572,10.214,10.214,10.214S37,26.856,37,21.214 S32.428,11,26.786,11z"/><path fill="#f9b84f" d="M69.764,26.348c0,0-1.433-8.292-10.719-8.292c-7.429,0-9.045,2.23-9.045,2.23 s-1.729-2.162-9.157-2.162c-9.286,0-11.393,8.494-11.393,8.494c-16.971,0.513-26.242,31.36-3.681,34.857 c0-10.944,8.08-13.332,8.08-13.332c2.442,3.861,9.275,4.429,10.456,3.361c-9.85-8.608,2.869-18.354,5.696-8.933 c2.827-9.421,15.546,0.325,5.696,8.933c1.181,1.068,8.014,0.5,10.456-3.361c0,0,8.08,2.388,8.08,13.332 C96.793,57.978,87.697,26.82,69.764,26.348z"/><path fill="#de5147" d="M50.032,81.571c-2.032,0-3.746-7.429-3.746-7.429h7.429C53.714,74.143,52,81.571,50.032,81.571z"/><path fill="#40396e" d="M31,57c2.699,0,8.772,0,8.772,0v9.591l0.287,3.864C40.059,70.455,31,70.507,31,57z"/><path fill="#40396e" d="M59.727,70.462L60,66.596V57c0,0,6.429,0,9,0C69,70.514,59.727,70.462,59.727,70.462z"/><ellipse cx="59.929" cy="63.714" fill="#fff" rx="4.929" ry="6.714"/><ellipse cx="40.071" cy="63.714" fill="#fff" rx="4.929" ry="6.714"/><ellipse cx="59.683" cy="65.786" fill="#40396e" rx="3.317" ry="4.643"/><ellipse cx="40.335" cy="65.786" fill="#40396e" rx="3.317" ry="4.643"/><circle cx="62.143" cy="63" r="1.857" fill="#fff"/><circle cx="42.571" cy="63" r="1.857" fill="#fff"/><circle cx="73.214" cy="21.214" r="4.643" fill="#de5147"/><circle cx="26.786" cy="21.214" r="4.643" fill="#de5147"/><path fill="none" stroke="#40396e" stroke-linecap="round" stroke-linejoin="round" stroke-miterlimit="10" stroke-width="3" d="M80.187,28.665c1.991-1.864,3.242-4.508,3.242-7.45C83.429,15.572,78.856,11,73.214,11c-4.281,0-7.941,2.635-9.46,6.37c0,0,0,0,0,0 c0,0,0,0,0,0.001c-1.319-0.492-2.8-0.799-4.468-0.799c-7.429,0-9.286,3.714-9.286,3.714s-1.857-3.714-9.286-3.714 c-1.668,0-3.149,0.308-4.468,0.799c0,0,0,0,0-0.001c0,0,0,0,0,0c-1.519-3.735-5.179-6.37-9.46-6.37 c-5.642,0-10.214,4.572-10.214,10.214c0,2.943,1.251,5.587,3.242,7.45c-8.919,6.533-11.737,22.736-1.882,29.771L14.714,89h12.173 l1.163-15.663c0.518,0.114,0.265,0.013,0.657,0.051C32.722,81.412,40.643,90.326,50,90.326c9.608,0,17.28-8.366,21.281-16.635 c0.287,0,0.253,0,0.253,0L72.536,89h11.143l-3.118-29.62C92.18,52.979,89.533,35.511,80.187,28.665z"/><circle cx="50" cy="48" r="2" fill="#de5147"/></svg>