<svg xmlns="http://www.w3.org/2000/svg"  viewBox="0 0 100 100" width="200px" height="200px"><path fill="#1d1d1b" d="M91.505,13.999c-0.169,0-0.338,0.007-0.502,0.02 C89.878,14.1,63.322,16,52,16s-37.877-1.9-38.995-1.98c-0.171-0.014-0.343-0.021-0.513-0.021c-2.169,0-4.185,1.079-5.395,2.888 c-1.296,1.938-1.454,4.436-0.411,6.521L8,26c0.8,1.598,2.362,1.478,4,2l1.25,5.287c0.098,0.343,0.223,0.672,0.372,0.987 c-0.997,0.299-1.912,0.837-2.67,1.582c-1.617,1.583-2.299,3.935-1.78,6.133l2,8.498c0.693,2.951,3.295,5.013,6.328,5.013H20v31 c0,3.584,2.916,6.5,6.5,6.5h7c3.584,0,6.5-2.916,6.5-6.5v-31h24v31c0,3.584,2.916,6.5,6.5,6.5h7c3.584,0,6.5-2.916,6.5-6.5v-31h2.5 c3.032,0,5.635-2.062,6.327-5.011l2-8.501c0.518-2.201-0.164-4.551-1.779-6.132c-0.762-0.746-1.676-1.283-2.672-1.582 c0.15-0.315,0.275-0.646,0.374-0.988l0.741-2.594c1.64-0.523,3.022-1.686,3.822-3.285l2-4c1.044-2.088,0.885-4.589-0.411-6.521 C95.693,15.079,93.676,13.999,91.505,13.999z" opacity=".35"/><path fill="#f2f2f2" d="M89.505,11.999c-0.169,0-0.338,0.007-0.502,0.02C87.878,12.1,61.322,14,50,14 s-37.877-1.9-38.995-1.98c-0.171-0.014-0.343-0.021-0.513-0.021c-2.169,0-4.185,1.079-5.395,2.888 c-1.296,1.938-1.454,4.436-0.411,6.521l2.002,4.003c0.8,1.598,2.183,2.759,3.821,3.281l0.742,2.596 c0.098,0.343,0.223,0.672,0.372,0.987c-0.997,0.299-1.912,0.837-2.67,1.582c-1.617,1.583-2.299,3.935-1.78,6.133l2,8.498 c0.693,2.95,3.295,5.012,6.327,5.012H18v31c0,3.584,2.916,6.5,6.5,6.5h7c3.584,0,6.5-2.916,6.5-6.5v-31h24v31 c0,3.584,2.916,6.5,6.5,6.5h7c3.584,0,6.5-2.916,6.5-6.5v-31h2.5c3.032,0,5.635-2.062,6.327-5.011l2-8.501 c0.518-2.201-0.164-4.551-1.779-6.132c-0.762-0.746-1.676-1.283-2.672-1.582c0.15-0.315,0.275-0.646,0.374-0.988l0.741-2.594 c1.64-0.523,3.022-1.686,3.822-3.285l2-4c1.044-2.088,0.885-4.589-0.411-6.521C93.693,13.079,91.676,11.999,89.505,11.999z"/><polygon fill="#b73b3b" points="17.5,29.5 82.5,29.5 84.5,22 15.5,22"/><rect width="7" height="56.5" x="68.5" y="28" fill="#de5147"/><rect width="7" height="56.5" x="24.5" y="28" fill="#de5147"/><path fill="#f4665c" d="M23.5,32h9c1.105,0,2-0.895,2-2v-2h-13v2C21.5,31.105,22.395,32,23.5,32z M67.5,32h9	c1.105,0,2-0.895,2-2v-2h-13v2C65.5,31.105,66.395,32,67.5,32z"/><path fill="#f4665c" d="M75.5,41.75c-1.47,0.2-4.483,0.354-5.923,0.394c-3.687,0.102-35.467,0.102-39.154,0	c-1.44-0.04-4.453-0.194-5.923-0.394c-2.271-0.309-9-1.75-9-1.75v5.5H45h10h29.5V40C84.5,40,77.771,41.441,75.5,41.75z"/><rect width="7" height="17.5" x="46.5" y="29.5" fill="#f9b84f"/><rect width="7" height="3" x="68.5" y="45.5" fill="#40396e" opacity=".35"/><rect width="7" height="3" x="24.5" y="45.5" fill="#40396e" opacity=".35"/><rect width="7" height="3" x="68.5" y="32" fill="#40396e" opacity=".35"/><rect width="7" height="3" x="24.5" y="32" fill="#40396e" opacity=".35"/><path fill="#40396e" d="M90.746,17.666c-0.3-0.448-0.824-0.704-1.354-0.662C89.117,17.023,61.808,19,50,19	s-39.117-1.977-39.391-1.996c-0.541-0.043-1.056,0.214-1.355,0.662s-0.336,1.022-0.095,1.505l2,4C11.413,23.679,11.932,24,12.5,24	h1.869l1.689,5.912C16.242,30.556,16.83,31,17.5,31h2.528c0.192,1.736,1.377,3.178,2.972,3.743v3.87	c-4.91-0.491-9.08-1.554-9.126-1.566c-0.508-0.13-1.049,0.014-1.423,0.382c-0.375,0.367-0.531,0.904-0.411,1.415l2,8.5	c0.159,0.678,0.764,1.156,1.46,1.156H23v36c0,0.828,0.671,1.5,1.5,1.5h7c0.829,0,1.5-0.672,1.5-1.5v-36h34v36	c0,0.828,0.672,1.5,1.5,1.5h7c0.828,0,1.5-0.672,1.5-1.5v-36h7.5c0.696,0,1.301-0.479,1.46-1.156l2-8.5	c0.12-0.511-0.035-1.048-0.41-1.415c-0.376-0.368-0.915-0.511-1.424-0.382C86.08,37.06,81.909,38.122,77,38.613v-3.87	c1.595-0.565,2.779-2.007,2.973-3.743H82.5c0.67,0,1.258-0.444,1.442-1.088L85.632,24H87.5c0.568,0,1.088-0.321,1.342-0.829l2-4	C91.083,18.688,91.047,18.114,90.746,17.666z M45,39.846c-3.412-0.127-7.435-0.332-12-0.611v-4.491	c1.595-0.565,2.78-2.007,2.972-3.743H45V39.846z M48,41.398V31h4v10.398V45.5h-4V41.398z M81.368,28H78.5	c-0.828,0-1.5,0.672-1.5,1.5v1c0,0.827-0.673,1.5-1.5,1.5c-0.828,0-1.5,0.672-1.5,1.5v6.746c0,0.416,0.173,0.813,0.477,1.097	c0.305,0.283,0.702,0.438,1.128,0.399c3.508-0.244,6.779-0.817,8.886-1.251L83.312,45.5H75.5c-0.828,0-1.5,0.672-1.5,1.5v36h-4V47	c0-0.828-0.672-1.5-1.5-1.5H55v-2.653c3.807-0.14,8.368-0.377,13.594-0.706C69.385,42.092,70,41.437,70,40.645V33.5	c0-0.828-0.672-1.5-1.5-1.5c-0.827,0-1.5-0.673-1.5-1.5v-1c0-0.828-0.672-1.5-1.5-1.5h-12h-7h-12c-0.829,0-1.5,0.672-1.5,1.5v1	c0,0.827-0.673,1.5-1.5,1.5c-0.829,0-1.5,0.672-1.5,1.5v7.145c0,0.792,0.616,1.447,1.406,1.497	c5.226,0.328,9.787,0.565,13.594,0.706V45.5H31.5c-0.829,0-1.5,0.672-1.5,1.5v36h-4V47c0-0.828-0.671-1.5-1.5-1.5h-7.812	l-1.179-5.009c2.106,0.434,5.379,1.007,8.887,1.251c0.411,0.033,0.823-0.116,1.127-0.399C25.827,41.06,26,40.662,26,40.246V33.5	c0-0.828-0.671-1.5-1.5-1.5c-0.827,0-1.5-0.673-1.5-1.5v-1c0-0.828-0.671-1.5-1.5-1.5h-2.869l-1.143-4h65.023L81.368,28z M55,39.846	V31h9.027c0.193,1.736,1.378,3.178,2.973,3.743v4.491C62.435,39.514,58.412,39.719,55,39.846z"/></svg>