<svg xmlns="http://www.w3.org/2000/svg"  viewBox="0 0 100 100" width="200px" height="200px" baseProfile="basic"><path fill="#1d1d1b" d="M14.5,88C8.71,88,4,83.291,4,77.5v-51C4,20.71,8.71,16,14.5,16h73 C93.29,16,98,20.71,98,26.5v51C98,83.29,93.29,88,87.5,88H14.5z" opacity=".35"/><path fill="#f2f2f2" d="M12.5,86C6.71,86,2,81.291,2,75.5v-51C2,18.71,6.71,14,12.5,14h73C91.29,14,96,18.71,96,24.5v51 C96,81.29,91.29,86,85.5,86H12.5z"/><path fill="#d9eeff" d="M85.5,79.5h-73c-2.209,0-4-1.791-4-4v-51c0-2.209,1.791-4,4-4h73c2.209,0,4,1.791,4,4v51 C89.5,77.709,87.709,79.5,85.5,79.5z"/><path fill="#70bfff" d="M75.5,42h-15c-0.828,0-1.5-0.671-1.5-1.5s0.672-1.5,1.5-1.5h15c0.828,0,1.5,0.671,1.5,1.5 S76.328,42,75.5,42z"/><path fill="#70bfff" d="M79.5,33h-19c-0.828,0-1.5-0.671-1.5-1.5c0-0.829,0.672-1.5,1.5-1.5h19c0.828,0,1.5,0.671,1.5,1.5 C81,32.329,80.328,33,79.5,33z"/><path fill="#70bfff" d="M75.5,60h-15c-0.828,0-1.5-0.671-1.5-1.5s0.672-1.5,1.5-1.5h15c0.828,0,1.5,0.671,1.5,1.5 S76.328,60,75.5,60z"/><path fill="#70bfff" d="M79.5,51h-19c-0.828,0-1.5-0.671-1.5-1.5s0.672-1.5,1.5-1.5h19c0.828,0,1.5,0.671,1.5,1.5 S80.328,51,79.5,51z"/><path fill="#70bfff" d="M79.5,69h-19c-0.828,0-1.5-0.671-1.5-1.5s0.672-1.5,1.5-1.5h19c0.828,0,1.5,0.671,1.5,1.5 S80.328,69,79.5,69z"/><path fill="#40396e" d="M12.5,81C9.468,81,7,78.533,7,75.5v-51c0-3.033,2.468-5.5,5.5-5.5h73c3.032,0,5.5,2.467,5.5,5.5v51 c0,3.033-2.468,5.5-5.5,5.5H12.5z M85.5,78c1.379,0,2.5-1.122,2.5-2.5v-51c0-1.378-1.121-2.5-2.5-2.5h-73 c-1.379,0-2.5,1.122-2.5,2.5v51c0,1.378,1.121,2.5,2.5,2.5H85.5z"/><path fill="#d47f56" d="M47.606,63H17.394C16.624,63,16,62.38,16,61.615V40.385C16,39.62,16.624,39,17.394,39h30.211 C48.376,39,49,39.62,49,40.385v21.231C49,62.38,48.376,63,47.606,63z"/><path fill="#ffc571" d="M32.5,43.025c-1.381,0-2.5,1.119-2.5,2.5c0,1.381,1.119,2.5,2.5,2.5c1.381,0,2.5-1.119,2.5-2.5 C35,44.144,33.881,43.025,32.5,43.025z"/><rect width="3" height="24" x="40" y="39" fill="#40396e" opacity=".35"/><rect width="3" height="24" x="22" y="39" fill="#40396e" opacity=".35"/><path fill="#d47f56" d="M40,41h-3v-4h-9v4h-3v-4.5c0-1.379,1.122-2.5,2.5-2.5h10c1.378,0,2.5,1.121,2.5,2.5V41z"/></svg>