<svg xmlns="http://www.w3.org/2000/svg"  viewBox="0 0 100 100" width="200px" height="200px"><path d="M83.201,47.214c0.2-0.066,0.414-0.102,0.636-0.102c3.513,0,6.372-2.839,6.372-6.328V26.02 c0-5.525-4.526-10.02-10.09-10.02H67.614c-0.992,0-1.949,0.226-2.808,0.645C63.947,16.228,62.995,16,62.016,16H14.849 C8.845,16,3.961,20.851,3.961,26.814v13.509c0,3.489,2.859,6.328,6.372,6.328c1.103,0,2.001,0.887,2.001,1.978 c0,1.09-0.898,1.977-2.001,1.977c-3.513,0-6.372,2.839-6.372,6.328V69c0,5.959,4.882,11,10.882,11h41.844 c3.925,7.051,11.477,11,19.75,11C88.878,91,99,80.951,99,68.598C99,58.57,92.407,50.064,83.201,47.214z" opacity=".35"/><path fill="#f2f2f2" d="M81.24,45.214c0.2-0.066,0.414-0.102,0.636-0.102c3.513,0,6.372-2.839,6.372-6.328V24.02 c0-5.525-4.526-10.02-10.09-10.02H65.653c-0.992,0-1.949,0.226-2.808,0.645C61.987,14.228,61.034,14,60.055,14H12.888 C6.884,14,2,18.851,2,24.814v13.509c0,3.489,2.859,6.328,6.372,6.328c1.103,0,2.001,0.887,2.001,1.978 c0,1.09-0.898,1.977-2.001,1.977C4.859,48.605,2,51.444,2,54.933V67c0,5.959,4.882,11,10.882,11h41.844 c3.925,7.051,11.477,11,19.75,11c12.441,0,22.563-10.049,22.563-22.402C97.039,56.57,90.446,48.064,81.24,45.214z"/><path fill="#ffc571" d="M81.883,39.545V24.709c0-2.048-1.664-3.709-3.717-3.709H65.661L65.6,21.094 c-1.313,2.021-4.294,1.97-5.537-0.094v0H12.896c-2.494,0-4.516,2.018-4.516,4.507v13.575c4.625,0,8.374,3.736,8.374,8.345 s-3.749,8.345-8.374,8.345v11.726c0,2.486,2.019,4.501,4.51,4.501h47.102l2.817-1.355L66.508,72h11.654 c2.055,0,3.722-1.663,3.722-3.714v-12.05c-4.625,0-8.374-3.736-8.374-8.345S77.258,39.545,81.883,39.545z"/><circle cx="63" cy="36" r="2" fill="#f2f2f2"/><circle cx="63" cy="28" r="2" fill="#f2f2f2"/><circle cx="63" cy="44" r="2" fill="#f2f2f2"/><circle cx="63" cy="52" r="2" fill="#f2f2f2"/><circle cx="63.737" cy="63.773" r="1.961" fill="#f2f2f2"/><circle cx="75.5" cy="67.5" r="15.5" fill="#739f4d"/><path fill="#40396e" d="M74.477,84.5c-7.583,0-14.128-4.576-16.629-11.5H12.882c-3.313,0-6.01-2.691-6.01-6V54.918 c0-0.828,0.672-1.5,1.5-1.5c3.79,0,6.873-3.078,6.873-6.862s-3.083-6.863-6.873-6.863c-0.828,0-1.5-0.672-1.5-1.5V25 c0-3.309,2.698-6,6.016-6h47.167c0.526,0,1.014,0.275,1.285,0.727c0.303,0.504,0.817,0.799,1.41,0.809 c0.667-0.017,1.231-0.308,1.584-0.852C64.61,19.258,65.085,19,65.593,19h12.565c2.926,0,5.218,2.196,5.218,5v14.657 c0,0.828-0.672,1.5-1.5,1.5c-3.79,0-6.874,3.078-6.874,6.862c0,0.675,0.099,1.337,0.295,1.979C84.58,49.432,92,57.189,92,66.664 C92,76.499,84.139,84.5,74.477,84.5z M9.872,56.305V67c0,1.654,1.351,3,3.01,3h46.055c0.667,0,1.255,0.44,1.44,1.082 c1.81,6.231,7.476,10.418,14.1,10.418C82.484,81.5,89,74.845,89,66.664c0-8.092-6.506-14.676-14.506-14.686 c-0.098,0.007-0.162,0.013-0.231,0.011c-0.586,0-1.119-0.342-1.364-0.875c-0.595-1.3-0.896-2.678-0.896-4.095 c0-4.929,3.639-9.025,8.374-9.749V24c0-1.313-1.115-2-2.218-2H66.317c-0.928,0.996-2.232,1.579-3.618,1.534 c-1.318-0.021-2.534-0.582-3.392-1.534h-46.42c-1.663,0-3.016,1.346-3.016,3v11.806c4.735,0.725,8.373,4.82,8.373,9.75 C18.245,51.484,14.607,55.581,9.872,56.305z"/><rect width="4" height="18" x="73" y="58" fill="#f2f2f2"/><rect width="4" height="18" x="73" y="58" fill="#f2f2f2" transform="rotate(-90 75 67)"/></svg>