<svg xmlns="http://www.w3.org/2000/svg"  viewBox="0 0 100 100" width="100px" height="100px"><path fill="#1d1d1b" d="M99.36,69.74c-0.1,0.59-0.24,1.18-0.42,1.75 c-0.7,2.14-1.97,4.02-3.69,5.46l-0.05,0.04l-0.24,0.2c-0.3,0.23-0.59,0.42-0.88,0.6l-0.04,0.03c-0.18,0.13-0.36,0.24-0.54,0.34 c-0.23,0.13-0.45,0.24-0.68,0.34c-0.32,0.17-0.61,0.3-0.91,0.42l-0.24,0.09l-0.19,0.05c-0.05,0.02-0.1,0.04-0.15,0.05 c-0.81,1.11-1.81,2.08-2.98,2.87C86.38,83.3,84.09,84,81.73,84c-3.88,0-7.41-1.85-9.61-4.88c-2.88-0.95-5.34-2.99-6.79-5.72 c0.02,0.15,0.03,0.3,0.04,0.44c1.39,2.18,1.94,4.82,1.51,7.37c-0.08,0.49-0.21,0.99-0.36,1.47c-0.42,1.28-1.07,2.45-1.95,3.49 c-0.1,0.13-0.21,0.26-0.32,0.38l-0.16,0.17l-0.08,0.07c-0.96,0.97-2.08,1.73-3.32,2.26c-0.11,0.05-0.21,0.09-0.32,0.13 c-1.95,2.38-4.9,3.82-8.05,3.82c-3.16,0-6.12-1.45-8.07-3.83c-0.17-0.07-0.34-0.14-0.51-0.22c-2.17-0.98-3.95-2.68-5.02-4.79 c-0.24-0.49-0.44-0.98-0.61-1.48c-0.01-0.05-0.03-0.11-0.05-0.17c-0.01,0-0.01,0.01-0.02,0.01C36.17,84.71,33.44,86,30.5,86 c-2.93,0-5.67-1.28-7.55-3.49c-1.6-0.66-3.03-1.75-4.09-3.15c-0.11-0.13-0.2-0.25-0.29-0.38l-0.15-0.22l-0.13-0.23 c-0.42-0.69-0.75-1.39-0.99-2.11l-0.08-0.26l-0.04-0.17c-0.74-2.73-0.31-5.55,1.11-7.86c0.2-2.38,1.25-4.65,2.96-6.32 c0.33-0.31,0.7-0.63,1.09-0.91c0.29-0.21,0.6-0.41,0.94-0.6l0.1-0.07l0.33-0.17c0.24-0.12,0.52-0.24,0.81-0.35 c0.19-0.08,0.39-0.16,0.58-0.22c0.25-0.08,0.52-0.15,0.8-0.21c0.22-0.06,0.47-0.12,0.72-0.16c0.52-0.08,1.04-0.12,1.55-0.12 c0.79,0,1.57,0.09,2.33,0.28c0.76-0.19,1.54-0.28,2.33-0.28c0.34,0,0.69,0.02,1.03,0.05l2.3-1.15l-2.54-0.55 c-0.37-0.08-0.72-0.19-1.07-0.33L7.03,46.51C4.58,45.5,3,43.14,3,40.5v-11c0-2.25,1.19-4.37,3.11-5.54C7.14,23.33,8.31,23,9.5,23 c1.02,0,2.04,0.25,2.96,0.71L31.8,33.6l11.44-6.64l2.68-3.22c-0.33-2.33,0.16-4.65,1.37-6.61c0.2-2.38,1.25-4.65,2.96-6.32 c0.33-0.32,0.7-0.63,1.09-0.91c0.29-0.21,0.6-0.41,0.95-0.6l0.07-0.05l0.28-0.15c0.3-0.16,0.59-0.28,0.87-0.38 c0.2-0.09,0.4-0.17,0.59-0.23c0.27-0.09,0.52-0.15,0.78-0.21c0.25-0.06,0.49-0.12,0.74-0.16C56.14,8.04,56.66,8,57.17,8 c0.79,0,1.57,0.09,2.33,0.28C60.26,8.09,61.04,8,61.83,8c0.51,0,1.04,0.04,1.55,0.12c1.16,0.19,2.3,0.59,3.36,1.2 c0.35,0.2,0.63,0.37,0.91,0.57c2.37,1.72,3.83,4.42,4.06,7.27c0.36,0.59,0.66,1.22,0.89,1.87c0.42,1.17,0.61,2.38,0.58,3.59 c-0.01,0.47-0.06,0.94-0.14,1.4c0.21-0.01,0.41-0.02,0.62-0.02c0.9,0,1.79,0.12,2.66,0.34c0.86-0.22,1.75-0.34,2.65-0.34 c0.55,0,1.09,0.04,1.63,0.13c1.3,0.2,2.55,0.66,3.72,1.37c0.3,0.17,0.54,0.32,0.77,0.49c2.56,1.86,4.1,4.77,4.28,7.85 c1.39,2.18,1.94,4.82,1.51,7.37c-0.08,0.49-0.21,0.98-0.36,1.47c-0.42,1.28-1.07,2.44-1.94,3.48c-0.1,0.13-0.21,0.25-0.31,0.37 l-0.18,0.19L88,46.8c-0.94,0.95-2.02,1.69-3.23,2.22c0.2-0.01,0.41-0.02,0.61-0.02c2.52,0,4.94,0.78,6.98,2.27 c3.14,2.28,4.91,5.85,4.91,9.6C99.08,63.4,99.87,66.6,99.36,69.74z" opacity=".35"/><path fill="#f2f2f2" d="M97.36,67.74c-0.1,0.59-0.24,1.18-0.42,1.75c-0.7,2.14-1.97,4.02-3.69,5.46l-0.05,0.04l-0.24,0.2 c-0.3,0.23-0.59,0.42-0.88,0.6l-0.04,0.03c-0.18,0.13-0.36,0.24-0.54,0.34c-0.23,0.13-0.45,0.24-0.68,0.34 c-0.32,0.17-0.61,0.3-0.91,0.42l-0.24,0.09l-0.19,0.05c-0.05,0.02-0.1,0.04-0.15,0.05c-0.81,1.11-1.81,2.08-2.98,2.87 C84.38,81.3,82.09,82,79.73,82c-3.88,0-7.41-1.85-9.61-4.88c-2.88-0.95-5.34-2.99-6.79-5.72c0.02,0.15,0.03,0.3,0.04,0.44 c1.39,2.18,1.94,4.82,1.51,7.37c-0.08,0.49-0.21,0.99-0.36,1.47c-0.42,1.28-1.07,2.45-1.95,3.49c-0.1,0.13-0.21,0.26-0.32,0.38 l-0.16,0.17l-0.08,0.07c-0.96,0.97-2.08,1.73-3.32,2.26c-0.11,0.05-0.21,0.09-0.32,0.13c-1.95,2.38-4.9,3.82-8.05,3.82 c-3.16,0-6.12-1.45-8.07-3.83c-0.17-0.07-0.34-0.14-0.51-0.22c-2.17-0.98-3.95-2.68-5.02-4.79c-0.24-0.49-0.44-0.98-0.61-1.48 c-0.01-0.05-0.03-0.11-0.05-0.17c-0.01,0-0.01,0.01-0.02,0.01C34.17,82.71,31.44,84,28.5,84c-2.93,0-5.67-1.28-7.55-3.49 c-1.6-0.66-3.03-1.75-4.09-3.15c-0.11-0.13-0.2-0.25-0.29-0.38l-0.15-0.22l-0.13-0.23c-0.42-0.69-0.75-1.39-0.99-2.11l-0.08-0.26 l-0.04-0.17c-0.74-2.73-0.31-5.55,1.11-7.86c0.2-2.38,1.25-4.65,2.96-6.32c0.33-0.31,0.7-0.63,1.09-0.91 c0.29-0.21,0.6-0.41,0.94-0.6l0.1-0.07l0.33-0.17c0.24-0.12,0.52-0.24,0.81-0.35c0.19-0.08,0.39-0.16,0.58-0.22 c0.25-0.08,0.52-0.15,0.8-0.21c0.22-0.06,0.47-0.12,0.72-0.16c0.52-0.08,1.04-0.12,1.55-0.12c0.79,0,1.57,0.09,2.33,0.28 c0.76-0.19,1.54-0.28,2.33-0.28c0.34,0,0.69,0.02,1.03,0.05l2.3-1.15l-2.54-0.55c-0.37-0.08-0.72-0.19-1.07-0.33L5.03,44.51 C2.58,43.5,1,41.14,1,38.5v-11c0-2.25,1.19-4.37,3.11-5.54C5.14,21.33,6.31,21,7.5,21c1.02,0,2.04,0.25,2.96,0.71L29.8,31.6 l11.44-6.64l2.68-3.22c-0.33-2.33,0.16-4.65,1.37-6.61c0.2-2.38,1.25-4.65,2.96-6.32c0.33-0.32,0.7-0.63,1.09-0.91 c0.29-0.21,0.6-0.41,0.95-0.6l0.07-0.05l0.28-0.15c0.3-0.16,0.59-0.28,0.87-0.38c0.2-0.09,0.4-0.17,0.59-0.23 c0.27-0.09,0.52-0.15,0.78-0.21c0.25-0.06,0.49-0.12,0.74-0.16C54.14,6.04,54.66,6,55.17,6c0.79,0,1.57,0.09,2.33,0.28 C58.26,6.09,59.04,6,59.83,6c0.51,0,1.04,0.04,1.55,0.12c1.16,0.19,2.3,0.59,3.36,1.2c0.35,0.2,0.63,0.37,0.91,0.57 c2.37,1.72,3.83,4.42,4.06,7.27c0.36,0.59,0.66,1.22,0.89,1.87c0.42,1.17,0.61,2.38,0.58,3.59c-0.01,0.47-0.06,0.94-0.14,1.4 c0.21-0.01,0.41-0.02,0.62-0.02c0.9,0,1.79,0.12,2.66,0.34c0.86-0.22,1.75-0.34,2.65-0.34c0.55,0,1.09,0.04,1.63,0.13 c1.3,0.2,2.55,0.66,3.72,1.37c0.3,0.17,0.54,0.32,0.77,0.49c2.56,1.86,4.1,4.77,4.28,7.85c1.39,2.18,1.94,4.82,1.51,7.37 c-0.08,0.49-0.21,0.98-0.36,1.47c-0.42,1.28-1.07,2.44-1.94,3.48c-0.1,0.13-0.21,0.25-0.31,0.37l-0.18,0.19L86,44.8 c-0.94,0.95-2.02,1.69-3.23,2.22c0.2-0.01,0.41-0.02,0.61-0.02c2.52,0,4.94,0.78,6.98,2.27c3.14,2.28,4.91,5.85,4.91,9.6 C97.08,61.4,97.87,64.6,97.36,67.74z"/><polygon fill="#d47f56" points="7.5,27.5 7.5,38.5 33,49 44.5,51.5 39.5,60.5 26.5,67 28.5,72.5 41,67 48,77.5 52.5,74.5 46,62.5 51.5,52.5 80,68.5 81.5,62 50.5,44.5 39,42 49.5,36.5 72,39.5 73.5,34 53.5,30.913 59,23 55.5,18 45.5,30 30,39"/><path fill="#f4a3be" d="M79.727,74c-1.846,0-3.448-1.312-3.81-3.118l-0.271-1.357l-1.374,0.161	c-0.149,0.018-0.299,0.026-0.447,0.026c-0.001,0-0.001,0-0.001,0c-1.688,0-3.173-1.079-3.694-2.687	c-0.571-1.755,0.182-3.684,1.788-4.587l1.206-0.678l-0.577-1.257c-0.771-1.674-0.245-3.677,1.249-4.762	C74.463,55.257,75.251,55,76.073,55c0.982,0,1.919,0.364,2.636,1.026l1.018,0.938l1.018-0.938C81.461,55.364,82.397,55,83.381,55	c0.822,0,1.61,0.257,2.278,0.742c1.493,1.085,2.019,3.088,1.249,4.763l-0.577,1.257l1.206,0.677	c1.606,0.903,2.359,2.832,1.788,4.587c-0.521,1.607-2.007,2.687-3.694,2.687c-0.148,0-0.298-0.009-0.448-0.026l-1.374-0.161	l-0.271,1.357C83.176,72.688,81.573,74,79.727,74z"/><path fill="#40396e" d="M71.917,62.438l1.206-0.678l-0.577-1.257	c-0.525-1.141-0.436-2.428,0.139-3.48l-2.618-1.478c-0.835,1.508-1.095,3.299-0.671,5.004c-0.463,0.389-0.855,0.841-1.194,1.326	l2.631,1.477C71.13,62.993,71.491,62.678,71.917,62.438z" opacity=".35"/><path fill="#f4a3be" d="M50.315,83c-1.148,0-2.145-0.816-2.37-1.94l-0.271-1.356l-1.375,0.162	c-0.093,0.011-0.186,0.016-0.278,0.016l0,0c-1.05,0-1.973-0.671-2.297-1.67c-0.355-1.092,0.113-2.292,1.112-2.854l1.207-0.678	l-0.579-1.257c-0.479-1.041-0.151-2.286,0.777-2.961C46.657,70.159,47.147,70,47.658,70c0.611,0,1.194,0.227,1.641,0.638	l1.017,0.938l1.017-0.938C51.778,70.227,52.361,70,52.973,70c0.511,0,1.001,0.159,1.416,0.462c0.93,0.675,1.256,1.92,0.777,2.962	l-0.577,1.257l1.206,0.677c0.999,0.562,1.468,1.762,1.112,2.854c-0.324,0.999-1.247,1.67-2.296,1.67	c-0.093,0-0.187-0.005-0.279-0.016l-1.375-0.162l-0.271,1.356C52.46,82.184,51.464,83,50.315,83z"/><path fill="#40396e" d="M46.241,70.462C46.657,70.159,47.147,70,47.658,70	c0.611,0,1.194,0.227,1.641,0.638l1.017,0.938l0.401-0.37l-2.242-4.139C48.205,67.027,47.934,67,47.658,67	c-1.15,0-2.251,0.358-3.182,1.036c-0.673,0.489-1.201,1.115-1.576,1.814l2.971,4.457l-0.407-0.884	C44.985,72.382,45.313,71.137,46.241,70.462z" opacity=".35"/><path fill="#f4a3be" d="M28.5,76c-0.916,0-1.711-0.65-1.89-1.546l-0.271-1.357l-1.375,0.161	c-0.074,0.009-0.148,0.014-0.222,0.014l0,0c-0.837,0-1.573-0.535-1.832-1.332c-0.283-0.872,0.089-1.828,0.886-2.275l1.206-0.677	l-0.577-1.257c-0.382-0.831-0.121-1.824,0.62-2.362C25.377,65.127,25.768,65,26.175,65c0.487,0,0.952,0.181,1.308,0.509l1.018,0.938	l1.018-0.938C29.873,65.181,30.338,65,30.825,65c0.407,0,0.798,0.127,1.129,0.368c0.741,0.538,1.002,1.531,0.62,2.362l-0.577,1.257	l1.206,0.677c0.797,0.447,1.169,1.403,0.886,2.274c-0.259,0.798-0.994,1.333-1.832,1.333c-0.073,0-0.147-0.005-0.222-0.014	l-1.375-0.161l-0.271,1.357C30.211,75.35,29.416,76,28.5,76z"/><path fill="#40396e" d="M35.673,67.792c0.297-1.679-0.309-3.424-1.62-4.569	l-3.662,1.831C30.532,65.022,30.677,65,30.825,65c0.407,0,0.798,0.127,1.129,0.368c0.741,0.538,1.002,1.531,0.62,2.362l-0.577,1.257	l1.206,0.677c0.233,0.131,0.425,0.309,0.579,0.512l2.775-1.221C36.322,68.53,36.028,68.135,35.673,67.792z" opacity=".35"/><path fill="#f4a3be" d="M74.315,43c-1.148,0-2.145-0.816-2.37-1.94l-0.271-1.356l-1.375,0.162	c-0.093,0.011-0.186,0.016-0.278,0.016l0,0c-1.05,0-1.973-0.671-2.297-1.67c-0.355-1.092,0.113-2.292,1.112-2.854l1.207-0.678	l-0.579-1.257c-0.479-1.041-0.151-2.286,0.777-2.961C70.657,30.159,71.147,30,71.658,30c0.611,0,1.194,0.227,1.641,0.638	l1.017,0.938l1.017-0.938C75.778,30.227,76.361,30,76.973,30c0.511,0,1.001,0.159,1.416,0.462c0.93,0.675,1.256,1.92,0.777,2.962	l-0.577,1.257l1.206,0.677c0.999,0.562,1.468,1.762,1.112,2.854c-0.324,0.999-1.247,1.67-2.296,1.67	c-0.093,0-0.187-0.005-0.279-0.016l-1.375-0.162l-0.271,1.356C76.46,42.184,75.464,43,74.315,43z"/><path fill="#40396e" d="M66.35,33.481c-1.374,1.27-2.002,3.188-1.629,5.048	l3.431,0.457c-0.184-0.227-0.334-0.485-0.428-0.776c-0.355-1.092,0.113-2.292,1.112-2.854l1.207-0.678l-0.579-1.257	c-0.007-0.016-0.01-0.033-0.017-0.049l-3.171-0.489C66.292,33.084,66.311,33.283,66.35,33.481z" opacity=".35"/><path fill="#f4a3be" d="M57.5,25c-0.916,0-1.711-0.65-1.89-1.546l-0.271-1.357l-1.375,0.161	c-0.074,0.009-0.148,0.014-0.222,0.014l0,0c-0.837,0-1.573-0.535-1.832-1.332c-0.283-0.872,0.089-1.828,0.886-2.275l1.206-0.677	l-0.577-1.257c-0.382-0.831-0.121-1.824,0.62-2.362C54.377,14.127,54.768,14,55.175,14c0.487,0,0.952,0.181,1.308,0.509l1.018,0.938	l1.018-0.938C58.873,14.181,59.338,14,59.825,14c0.407,0,0.798,0.127,1.129,0.368c0.741,0.538,1.002,1.531,0.62,2.362l-0.577,1.257	l1.206,0.677c0.797,0.447,1.169,1.403,0.886,2.274c-0.259,0.798-0.994,1.333-1.832,1.333c-0.073,0-0.147-0.005-0.222-0.014	l-1.375-0.161l-0.271,1.357C59.211,24.35,58.416,25,57.5,25z"/><path fill="#40396e" d="M53.068,25.226c0.551,1.13,1.523,1.997,2.689,2.441	l1.861-2.677C57.578,24.992,57.54,25,57.5,25c-0.916,0-1.711-0.65-1.89-1.546l-0.271-1.357l-1.375,0.161	c-0.074,0.009-0.148,0.014-0.222,0.014c-0.517,0-0.98-0.221-1.332-0.565l-1.934,2.32C51.195,24.663,52.089,25.091,53.068,25.226z" opacity=".35"/><path fill="#d84178" d="M79.75,61c1.657,0,3,1.343,3,3s-1.343,3-3,3s-3-1.343-3-3S78.093,61,79.75,61z M74.5,34	c1.105,0,2,0.895,2,2s-0.895,2-2,2s-2-0.895-2-2S73.395,34,74.5,34z M50.5,74c1.105,0,2,0.895,2,2s-0.895,2-2,2s-2-0.895-2-2	S49.395,74,50.5,74z M28.5,68.5c0.828,0,1.5,0.672,1.5,1.5s-0.672,1.5-1.5,1.5S27,70.828,27,70S27.672,68.5,28.5,68.5z M57.5,17.5	c0.828,0,1.5,0.672,1.5,1.5s-0.672,1.5-1.5,1.5S56,19.828,56,19S56.672,17.5,57.5,17.5z"/><path fill="#40396e" d="M90.06,60.55c0.66-2.67-0.34-5.57-2.64-7.24C86.24,52.45,84.84,52,83.38,52	c-1.31,0-2.57,0.37-3.65,1.04C78.64,52.37,77.38,52,76.07,52c-1.46,0-2.85,0.45-4.04,1.31c-0.4,0.3-0.75,0.64-1.08,1.01L51.24,43.19	c-0.13-0.07-0.27-0.12-0.42-0.16l-7.46-1.62l6.41-3.36l15.55,2.07c0.84,1.5,2.34,2.53,4.07,2.72c0.87,1.89,2.78,3.16,4.93,3.16	c2.14,0,4.05-1.27,4.92-3.15c2.09-0.25,3.86-1.67,4.52-3.71c0.66-2.04,0.04-4.25-1.48-5.66c0.4-2.03-0.39-4.19-2.13-5.45	C79.23,27.36,78.12,27,76.97,27c-0.94,0-1.85,0.24-2.65,0.69C73.51,27.24,72.6,27,71.66,27c-1.15,0-2.25,0.36-3.18,1.04	c-1.14,0.82-1.86,2.03-2.12,3.34L56.1,29.8l1.26-1.81c0.05,0,0.09,0.01,0.14,0.01c1.92,0,3.62-1.11,4.43-2.77	c1.86-0.26,3.42-1.55,4.01-3.37s0.06-3.79-1.27-5.07c0.32-1.82-0.4-3.72-1.95-4.85C61.87,11.33,60.87,11,59.83,11	c-0.83,0-1.62,0.2-2.33,0.58C56.79,11.2,56,11,55.17,11c-1.04,0-2.04,0.33-2.89,0.94c-1.55,1.13-2.27,3.03-1.95,4.85	c-1.33,1.28-1.86,3.25-1.27,5.08c0.11,0.35,0.26,0.68,0.44,0.98l-4.98,5.99l-14.57,8.45L8.18,26.16c-0.46-0.23-1.02-0.21-1.46,0.06	C6.27,26.49,6,26.98,6,27.5v11c0,0.61,0.37,1.16,0.93,1.39l25.5,10.5c0.08,0.03,0.16,0.06,0.25,0.08l9.53,2.07l-3.8,6.83l-5.89,2.94	c-0.54-0.2-1.11-0.31-1.69-0.31c-0.83,0-1.62,0.2-2.33,0.58C27.79,62.2,27,62,26.17,62c-1.04,0-2.04,0.33-2.89,0.94	c-1.55,1.13-2.27,3.03-1.95,4.85c-1.33,1.29-1.86,3.25-1.27,5.08c0.59,1.82,2.15,3.1,4.01,3.36C24.88,77.89,26.58,79,28.5,79	s3.62-1.11,4.43-2.77c1.86-0.26,3.42-1.54,4.01-3.36c0.27-0.83,0.3-1.69,0.13-2.5l3.38-1.49l1.86,2.79	c-0.08,0.6-0.08,1.21,0.04,1.81c-1.52,1.41-2.14,3.62-1.48,5.66c0.66,2.04,2.44,3.46,4.52,3.71c0.87,1.88,2.78,3.15,4.93,3.15	c2.14,0,4.05-1.27,4.92-3.15c2.08-0.25,3.86-1.67,4.52-3.71s0.04-4.25-1.48-5.66c0.41-2.03-0.39-4.19-2.13-5.45	C55.22,67.36,54.12,67,52.97,67c-0.88,0-1.73,0.22-2.49,0.62l-2.77-5.11l4.37-7.96l15.4,8.64c-0.61,1.48-0.73,3.16-0.2,4.76	c0.87,2.7,3.27,4.55,6.06,4.75c1.04,2.55,3.55,4.3,6.39,4.3c2.83,0,5.35-1.75,6.38-4.3c2.79-0.2,5.19-2.05,6.07-4.75	C93.06,65.25,92.17,62.33,90.06,60.55z M89.33,67.03c-0.53,1.6-2.01,2.68-3.7,2.68c-0.15,0-0.3-0.01-0.45-0.02l-1.37-0.17	l-0.27,1.36C83.18,72.69,81.57,74,79.73,74c-1.85,0-3.45-1.31-3.81-3.12l-0.27-1.36l-1.38,0.17c-0.15,0.01-0.3,0.02-0.45,0.02	c-0.84,0-1.63-0.27-2.28-0.74s-1.15-1.14-1.41-1.94c-0.57-1.76,0.18-3.69,1.79-4.59l0.17-0.1L52.23,51.19	c-0.34-0.19-0.76-0.24-1.14-0.13c-0.39,0.11-0.71,0.37-0.9,0.72l-5.5,10c-0.25,0.44-0.25,0.99-0.01,1.43l3.75,6.923	c0.319,0.107,0.617,0.273,0.869,0.505l1.017,0.938l1.017-0.938C51.778,70.227,52.361,70,52.973,70c0.511,0,1.001,0.159,1.416,0.462	c0.93,0.675,1.256,1.92,0.777,2.962l-0.577,1.257l1.206,0.677c0.999,0.562,1.468,1.762,1.112,2.854	c-0.324,0.999-1.247,1.67-2.296,1.67c-0.093,0-0.187-0.005-0.279-0.016l-1.375-0.162l-0.271,1.356C52.46,82.184,51.464,83,50.315,83	s-2.145-0.816-2.37-1.94l-0.271-1.356l-1.375,0.162c-0.093,0.011-0.186,0.016-0.278,0.016c-1.05,0-1.973-0.671-2.297-1.67	c-0.355-1.092,0.113-2.292,1.112-2.854l1.207-0.678l-0.579-1.257c-0.339-0.737-0.267-1.573,0.13-2.24l-1.743-2.613c0,0,0,0-0.001,0	l-1.6-2.4c-0.29-0.43-0.76-0.67-1.25-0.67c-0.2,0-0.41,0.04-0.6,0.13l-8.069,3.545l0.872,0.489c0.797,0.447,1.169,1.403,0.886,2.274	c-0.259,0.798-0.994,1.333-1.832,1.333c-0.073,0-0.147-0.005-0.222-0.014l-1.375-0.161l-0.271,1.357C30.211,75.35,29.416,76,28.5,76	s-1.711-0.65-1.89-1.546l-0.271-1.357l-1.375,0.161c-0.074,0.009-0.148,0.014-0.222,0.014c-0.837,0-1.573-0.535-1.832-1.332	c-0.283-0.872,0.089-1.828,0.886-2.275l1.206-0.677l-0.577-1.257c-0.382-0.831-0.121-1.824,0.62-2.362	C25.377,65.127,25.768,65,26.175,65c0.487,0,0.952,0.181,1.308,0.509l1.018,0.938l1.018-0.938C29.873,65.181,30.338,65,30.825,65	c0.407,0,0.798,0.127,1.129,0.368c0.152,0.11,0.278,0.243,0.388,0.386l2.7-1.35c-0.001-0.001-0.001-0.003-0.002-0.004l5.13-2.56	c0.27-0.13,0.49-0.35,0.64-0.61l5-9c0.23-0.42,0.25-0.92,0.06-1.35c-0.2-0.43-0.59-0.74-1.05-0.85l-11.37-2.47L9,37.5v-7.55	l20.32,10.39c0.45,0.23,0.99,0.21,1.43-0.04l15.5-9c0.16-0.09,0.29-0.2,0.4-0.34l7.31-8.7l-0.34-0.01	c-0.79-0.05-1.46-0.56-1.71-1.31c-0.28-0.87,0.09-1.83,0.89-2.28l1.2-0.67l-0.57-1.26c-0.39-0.83-0.13-1.82,0.62-2.36	c0.33-0.24,0.72-0.37,1.12-0.37c0.49,0,0.96,0.18,1.31,0.51l1.02,0.94l1.02-0.94c0.35-0.33,0.82-0.51,1.31-0.51	c0.4,0,0.79,0.13,1.12,0.37c0.75,0.54,1.01,1.53,0.62,2.36L61,17.99l1.2,0.67c0.8,0.45,1.17,1.41,0.89,2.28	c-0.26,0.8-1,1.33-1.83,1.33c-0.08,0-0.15,0-0.22-0.01l-1.38-0.16l-0.27,1.35C59.21,24.35,58.42,25,57.5,25	c-0.49,0-0.95-0.19-1.29-0.5l-1.73,2.45l-2.21,3.11c-0.3,0.42-0.35,0.97-0.15,1.44c0.21,0.48,0.64,0.82,1.15,0.9l16.35,2.52	l0.42-0.24l-0.58-1.26c-0.47-1.04-0.15-2.28,0.78-2.96c0.42-0.3,0.91-0.46,1.42-0.46c0.61,0,1.19,0.23,1.64,0.64l1.02,0.94	l1.01-0.94c0.45-0.41,1.03-0.64,1.64-0.64c0.51,0,1,0.16,1.42,0.46c0.93,0.68,1.25,1.92,0.78,2.96l-0.58,1.26l1.2,0.68	c1,0.56,1.47,1.76,1.12,2.85c-0.33,1-1.25,1.67-2.3,1.67c-0.09,0-0.19,0-0.28-0.01l-1.37-0.17l-0.27,1.36	C76.46,42.18,75.46,43,74.32,43c-1.15,0-2.15-0.82-2.37-1.94l-0.28-1.36l-1.37,0.17c-0.09,0.01-0.19,0.01-0.28,0.01	c-1.05,0-1.97-0.67-2.3-1.67c-0.08-0.27-0.12-0.54-0.11-0.81L49.7,35.01c-0.31-0.04-0.62,0.02-0.9,0.16l-10.5,5.5	c-0.55,0.29-0.87,0.91-0.79,1.53c0.09,0.63,0.55,1.13,1.17,1.27l11.28,2.45L69.5,56.94l2.72,1.54c0.11-1.07,0.66-2.07,1.57-2.74	c0.67-0.48,1.46-0.74,2.28-0.74c0.99,0,1.92,0.36,2.64,1.03l1.02,0.93l1.01-0.93C81.46,55.36,82.4,55,83.38,55	c0.82,0,1.61,0.26,2.28,0.74c1.49,1.09,2.02,3.09,1.25,4.76l-0.58,1.26l1.21,0.68C89.14,63.34,89.9,65.27,89.33,67.03z"/></svg>