<svg xmlns="http://www.w3.org/2000/svg"  viewBox="0 0 100 100" width="200px" height="200px"><path d="M40.5,95c-4.687,0-8.5-3.813-8.5-8.5V72H17.5C12.813,72,9,68.187,9,63.5	v-23c0-4.687,3.813-8.5,8.5-8.5H32V17.5c0-4.687,3.813-8.5,8.5-8.5h23c4.687,0,8.5,3.813,8.5,8.5V32h14.5c4.687,0,8.5,3.813,8.5,8.5	v23c0,4.687-3.813,8.5-8.5,8.5H72v14.5c0,4.687-3.813,8.5-8.5,8.5H40.5z" opacity=".35"/><path fill="#f2f2f2" d="M38.5,93c-4.687,0-8.5-3.813-8.5-8.5V70H15.5C10.813,70,7,66.187,7,61.5v-23	c0-4.687,3.813-8.5,8.5-8.5H30V15.5c0-4.687,3.813-8.5,8.5-8.5h23c4.687,0,8.5,3.813,8.5,8.5V30h14.5c4.687,0,8.5,3.813,8.5,8.5v23	c0,4.687-3.813,8.5-8.5,8.5H70v14.5c0,4.687-3.813,8.5-8.5,8.5H38.5z"/><path fill="#9ba7c5" d="M84.5,36.5h-21v-21c0-1.105-0.895-2-2-2h-23c-1.105,0-2,0.895-2,2v21h-21c-1.105,0-2,0.895-2,2v23	c0,1.105,0.895,2,2,2h21v21c0,1.105,0.895,2,2,2h23c1.105,0,2-0.895,2-2v-21h21c1.105,0,2-0.895,2-2v-23	C86.5,37.395,85.605,36.5,84.5,36.5z"/><path fill="#40396e" d="M62,63.5h22.5c1.105,0,2-0.895,2-2V59H64	c-1.105,0-2,0.895-2,2V63.5z" opacity=".35"/><path fill="#40396e" d="M15.5,63.5H38V61c0-1.105-0.895-2-2-2H13.5v2.5	C13.5,62.605,14.395,63.5,15.5,63.5z" opacity=".35"/><path fill="#40396e" d="M38.5,86.5h23c1.105,0,2-0.895,2-2V82h-27v2.5	C36.5,85.605,37.395,86.5,38.5,86.5z" opacity=".35"/><path fill="#40396e" d="M61.5,88h-23c-1.93,0-3.5-1.57-3.5-3.5V65H15.5c-1.93,0-3.5-1.57-3.5-3.5v-23	c0-1.93,1.57-3.5,3.5-3.5H35V15.5c0-1.93,1.57-3.5,3.5-3.5h23c1.93,0,3.5,1.57,3.5,3.5V35h19.5c1.93,0,3.5,1.57,3.5,3.5v23	c0,1.93-1.57,3.5-3.5,3.5H65v19.5C65,86.43,63.43,88,61.5,88z M15.5,38c-0.276,0-0.5,0.224-0.5,0.5v23c0,0.275,0.224,0.5,0.5,0.5h21	c0.829,0,1.5,0.672,1.5,1.5v21c0,0.275,0.224,0.5,0.5,0.5h23c0.275,0,0.5-0.225,0.5-0.5v-21c0-0.828,0.672-1.5,1.5-1.5h21	c0.275,0,0.5-0.225,0.5-0.5v-23c0-0.276-0.225-0.5-0.5-0.5h-21c-0.828,0-1.5-0.671-1.5-1.5v-21c0-0.276-0.225-0.5-0.5-0.5h-23	c-0.276,0-0.5,0.224-0.5,0.5v21c0,0.829-0.671,1.5-1.5,1.5H15.5z"/></svg>