<svg xmlns="http://www.w3.org/2000/svg"  viewBox="0 0 100 100" width="200px" height="200px"><path d="M52,97c-11.256,0-24.067-7.1-29.166-16.163	c-3.931-6.99-1.48-13.621-0.017-17.584c0.235-0.635,0.578-1.563,0.683-1.987c0.023-4.15,0.646-7.514,1.319-9.95	C19.011,44.833,7.8,30.167,7.8,13.6c0-2.048,0.981-3.999,2.625-5.219C11.535,7.556,12.913,7.1,14.3,7.1	c0.638,0,1.272,0.094,1.883,0.279C30.509,11.677,37.673,25.968,42,34c2.313-0.599,7.344-1.1,10-1.1c2.707,0,5.486,0.519,7.828,1.133	c4.521-7.983,14.393-22.35,28.755-26.659C89.182,7.193,89.813,7.1,90.45,7.1c1.39,0,2.77,0.457,3.884,1.288	c1.636,1.215,2.616,3.165,2.616,5.212c0,16.446-11.467,31.023-17.54,37.586c0.818,2.493,1.563,5.898,1.589,10.08	c0.105,0.425,0.448,1.352,0.682,1.983c1.465,3.964,3.916,10.597-0.015,17.588C76.653,89.749,63.346,97,52,97z" opacity=".35"/><path fill="#f2f2f2" d="M50,95c-11.256,0-24.067-7.1-29.166-16.163c-3.931-6.99-1.48-13.621-0.017-17.584	c0.235-0.635,0.578-1.563,0.683-1.987c0.023-4.15,0.646-7.514,1.319-9.95C17.011,42.833,5.8,28.167,5.8,11.6	c0-2.048,0.981-3.999,2.625-5.219C9.535,5.556,10.913,5.1,12.3,5.1c0.638,0,1.272,0.094,1.883,0.279	c14.326,4.298,23.794,18.588,28.121,26.62C44.616,31.4,47.344,30.9,50,30.9c2.707,0,5.486,0.519,7.828,1.133	c4.521-7.983,14.393-22.35,28.755-26.659C87.182,5.193,87.813,5.1,88.45,5.1c1.39,0,2.77,0.457,3.884,1.288	C93.97,7.603,94.95,9.553,94.95,11.6c0,16.446-11.467,31.023-17.54,37.586c0.818,2.493,1.563,5.898,1.589,10.08	c0.105,0.425,0.448,1.352,0.682,1.983c1.465,3.964,3.916,10.597-0.015,17.588C74.653,87.749,61.346,95,50,95z"/><path fill="#ffe385" d="M69.7,47.75c0,0,18.75-17.25,18.75-36.15c-17,5.1-27.4,28.35-27.4,28.35S55.1,37.4,50,37.4	s-11.05,2.55-11.05,2.55S29.3,16.7,12.3,11.6c0,18.9,18,36.15,18,36.15S28,52,28,59.5c0,3.4-4.088,9.77-0.5,16.15	C31.428,82.634,42.227,87.5,50,87.5s19.072-4.866,23-11.85c3.588-6.38-0.5-12.75-0.5-16.15C72.5,52,69.7,47.75,69.7,47.75z"/><circle cx="61" cy="61" r="4" fill="#40396e"/><circle cx="60.5" cy="59.5" r="1.5" fill="#f2f2f2"/><circle cx="39" cy="61" r="4" fill="#40396e"/><circle cx="38" cy="59.5" r="1.5" fill="#f2f2f2"/><path fill="#ff7575" d="M34.5,72.75c0-3.176-2.574-5.75-5.75-5.75c-1.051,0-2.033,0.287-2.881,0.779	c-0.412,2.473-0.338,5.169,1.181,7.871c0.547,0.973,1.249,1.919,2.051,2.832C32.112,78.3,34.5,75.807,34.5,72.75z"/><path fill="#ff7575" d="M65.5,72.75c0,3.176,2.574,5.75,5.75,5.75c0.012,0,0.024-0.002,0.036-0.002	c0.823-0.919,1.538-1.869,2.089-2.848c1.457-2.591,1.582-5.177,1.227-7.566C73.657,67.405,72.502,67,71.25,67	C68.074,67,65.5,69.574,65.5,72.75z"/><ellipse cx="50" cy="65.325" fill="#40396e" rx="2.55" ry="1.7"/><path fill="#40396e" d="M54.25,75c-2.063,0-3.446-0.926-4.25-1.717C49.196,74.074,47.814,75,45.75,75	c-3.523,0-5.061-2.7-5.125-2.815c-0.268-0.482-0.093-1.091,0.39-1.359c0.481-0.267,1.086-0.095,1.356,0.384	C42.418,71.291,43.438,73,45.75,73c2.319,0,3.337-1.719,3.379-1.792c0.179-0.31,0.511-0.504,0.869-0.504c0.002,0,0.005,0,0.008,0	c0.36,0.003,0.693,0.196,0.868,0.511C50.913,71.281,51.932,73,54.25,73s3.337-1.719,3.38-1.792c0.275-0.477,0.886-0.644,1.36-0.374	c0.478,0.271,0.65,0.871,0.385,1.352C59.311,72.3,57.773,75,54.25,75z"/><path fill="#40396e" d="M74,59.5c0-5.705-1.54-9.655-2.433-11.463C75.336,44.323,89.95,28.809,89.95,11.6	c0-0.474-0.225-0.92-0.604-1.204c-0.381-0.283-0.872-0.369-1.326-0.233c-15.301,4.59-25.215,22.796-27.725,27.881	C58.173,37.265,53.901,35.9,50,35.9c-3.881,0-8.126,1.35-10.26,2.132c-2.388-5.157-11.736-23.286-27.009-27.868	c-0.453-0.135-0.945-0.05-1.327,0.233C11.024,10.68,10.8,11.126,10.8,11.6c0,17.291,14.187,32.879,17.705,36.478	C27.783,49.842,26.5,53.78,26.5,59.5c0,0.803-0.481,2.105-0.991,3.483c-1.314,3.557-3.114,8.427-0.316,13.402	C29.416,83.893,40.544,90,50,90c9.567,0,21.157-6.234,25.308-13.614c2.798-4.976,0.998-9.846-0.316-13.402	C74.481,61.605,74,60.303,74,59.5z M72.692,74.915C69.071,81.353,58.468,87,50,87c-8.345,0-18.508-5.534-22.192-12.085	c-2.118-3.767-0.719-7.552,0.515-10.892c0.632-1.708,1.177-3.185,1.177-4.523c0-6.971,2.101-11.001,2.119-11.036	c0.321-0.594,0.206-1.329-0.281-1.796c-0.081-0.078-3.854-3.749-7.878-9.453c-1.123-5.062-2.297-12.839,0.359-16.818	c8.752,8.326,13.679,19.967,13.746,20.13c0.154,0.37,0.449,0.663,0.82,0.813c0.371,0.151,0.788,0.147,1.155-0.01	C39.597,41.305,45.277,38.9,50,38.9s10.402,2.405,10.46,2.429c0.746,0.32,1.624-0.02,1.959-0.766	c0.073-0.163,5.423-11.905,14.458-20.248c2.588,3.752,1.656,11.003,0.586,16.092c-4.4,6.153-8.69,10.158-8.779,10.24	c-0.537,0.495-0.637,1.311-0.24,1.923C68.47,48.609,71,52.601,71,59.5c0,1.339,0.546,2.815,1.177,4.523	C73.411,67.363,74.811,71.148,72.692,74.915z"/></svg>