<svg xmlns="http://www.w3.org/2000/svg"  viewBox="0 0 100 100" width="200px" height="200px"><path d="M20.5,93c-5.238,0-9.5-4.262-9.5-9.5v-19c0-5.238,4.262-9.5,9.5-9.5h0.791	c1.504-2.4,4.174-4,7.209-4h7c2.393,0,4.558,0.994,6.104,2.59c0.44-0.459,0.907-0.895,1.396-1.301v-9.687	c-4.639-3.346-7.5-8.78-7.5-14.603c0-4.939,1.96-9.546,5.521-12.972C44.392,11.785,48.821,10,53.495,10	c0.235,0,0.472,0.004,0.708,0.014c9.634,0.372,17.392,8.521,17.296,18.168C71.441,33.924,68.582,39.288,64,42.6v9.689	c0.966,0.802,1.841,1.714,2.604,2.711H83.5c5.238,0,9.5,4.262,9.5,9.5v19c0,5.238-4.262,9.5-9.5,9.5H20.5z" opacity=".35"/><path fill="#f2f2f2" d="M18.5,91C13.262,91,9,86.738,9,81.5v-19c0-5.238,4.262-9.5,9.5-9.5h0.791c1.504-2.4,4.174-4,7.209-4	h7c2.393,0,4.558,0.994,6.104,2.59c0.44-0.459,0.907-0.895,1.396-1.301v-9.687c-4.639-3.346-7.5-8.78-7.5-14.603	c0-4.939,1.96-9.546,5.521-12.972C42.392,9.785,46.821,8,51.495,8c0.235,0,0.472,0.004,0.708,0.014	c9.634,0.372,17.392,8.521,17.296,18.168C69.441,31.924,66.582,37.288,62,40.6v9.689c0.966,0.802,1.841,1.714,2.604,2.711H81.5	c5.238,0,9.5,4.262,9.5,9.5v19c0,5.238-4.262,9.5-9.5,9.5H18.5z"/><path fill="#9ba7c5" d="M63,26c0-6.351-5.149-11.5-11.5-11.5S40,19.649,40,26c0,4.942,3.124,9.144,7.5,10.771V57h8V36.771	C59.876,35.144,63,30.942,63,26z"/><circle cx="51.5" cy="26" r="10" fill="#f4665c"/><path fill="#70bfff" d="M18.5,84.5h63c1.657,0,3-1.343,3-3v-19c0-1.657-1.343-3-3-3h-63c-1.657,0-3,1.343-3,3v19	C15.5,83.157,16.843,84.5,18.5,84.5z"/><path fill="#2785bd" d="M59.754,61H61.5L60,58h-1.637c-1.546-2.118-4.04-3.5-6.863-3.5s-5.317,1.382-6.863,3.5H43l-1.5,3	h1.746H59.754z"/><path fill="#f4665c" d="M24.5,61h11v-3.5c0-1.105-0.895-2-2-2h-7c-1.105,0-2,0.895-2,2V61z"/><path fill="#40396e" d="M81.5,86h-63c-2.481,0-4.5-2.019-4.5-4.5v-19c0-2.481,2.019-4.5,4.5-4.5H23v-0.5	c0-1.93,1.57-3.5,3.5-3.5h7c1.93,0,3.5,1.57,3.5,3.5V58h4.155c1.044-2.153,2.75-3.947,4.845-5.095V37.767	c-4.526-2.121-7.5-6.723-7.5-11.767c0-3.567,1.416-6.895,3.988-9.369c2.569-2.472,5.929-3.752,9.524-3.621	c6.954,0.268,12.556,6.155,12.487,13.122C64.45,31.117,61.478,35.667,57,37.767v15.138c2.096,1.147,3.801,2.94,4.846,5.095H81.5	c2.481,0,4.5,2.019,4.5,4.5v19C86,83.981,83.981,86,81.5,86z M18.5,61c-0.827,0-1.5,0.673-1.5,1.5v19c0,0.827,0.673,1.5,1.5,1.5h63	c0.827,0,1.5-0.673,1.5-1.5v-19c0-0.827-0.673-1.5-1.5-1.5H60.858c-0.626,0-1.186-0.389-1.404-0.974	c-0.804-2.146-2.464-3.9-4.555-4.814C54.353,54.974,54,54.434,54,53.838V36.771c0-0.627,0.39-1.188,0.978-1.406	c3.86-1.435,6.481-5.157,6.521-9.262c0.053-5.36-4.255-9.889-9.603-10.095c-2.756-0.12-5.353,0.882-7.329,2.785	C42.589,20.696,41.5,23.256,41.5,26c0,4.151,2.621,7.915,6.523,9.365C48.61,35.583,49,36.144,49,36.771v17.067	c0,0.596-0.353,1.136-0.899,1.374c-2.092,0.915-3.751,2.669-4.554,4.813C43.328,60.611,42.768,61,42.142,61H35.5	c-0.829,0-1.5-0.672-1.5-1.5v-2c0-0.275-0.224-0.5-0.5-0.5h-7c-0.276,0-0.5,0.225-0.5,0.5v2c0,0.828-0.671,1.5-1.5,1.5H18.5z"/></svg>