<svg xmlns="http://www.w3.org/2000/svg"  viewBox="0 0 100 100" width="200px" height="200px"><path d="M21.5,93C15.71,93,11,88.29,11,82.5v-61C11,15.71,15.71,11,21.5,11h1.682C24.125,5.886,28.617,2,34,2 c0.474,0,0.954,0.031,1.427,0.092C40.154,2.699,40.089,6.366,41,11h18.182C60.125,5.886,64.617,2,70,2 c0.474,0,0.954,0.031,1.427,0.092C76.154,2.699,76.089,6.366,77,11h5.5C88.29,11,93,15.71,93,21.5v61C93,88.29,88.29,93,82.5,93 H21.5z" opacity=".35"/><path fill="#f2f2f2" d="M19.5,91C13.71,91,9,86.29,9,80.5v-61C9,13.71,13.71,9,19.5,9h1.682C22.125,3.886,26.617,0,32,0 c0.474,0,0.954,0.031,1.427,0.092C38.154,0.699,41.875,4.366,42.786,9h14.396C58.125,3.886,62.617,0,68,0 c0.474,0,0.954,0.031,1.427,0.092C74.154,0.699,77.875,4.366,78.786,9H80.5C86.29,9,91,13.71,91,19.5v61C91,86.29,86.29,91,80.5,91 H19.5z"/><path fill="#d9eeff" d="M79.5,84.5h-59c-2.761,0-5-2.239-5-5v-59c0-2.761,2.239-5,5-5h59c2.761,0,5,2.239,5,5v59 C84.5,82.261,82.261,84.5,79.5,84.5z"/><path fill="#ff7575" d="M84.5,33V21.534c0-3.333-2.239-6.034-5-6.034h-59c-2.761,0-5,2.702-5,6.034V33H84.5z"/><path fill="#40396e" d="M80.5,86h-61c-3.033,0-5.5-2.467-5.5-5.5v-61c0-3.033,2.467-5.5,5.5-5.5H27v3h-7.5 c-1.378,0-2.5,1.122-2.5,2.5v61c0,1.378,1.122,2.5,2.5,2.5h61c1.378,0,2.5-1.122,2.5-2.5v-61c0-1.378-1.122-2.5-2.5-2.5H73v-3h7.5 c3.033,0,5.5,2.467,5.5,5.5v61C86,83.533,83.533,86,80.5,86z"/><rect width="26" height="3" x="37" y="14" fill="#40396e"/><rect width="8" height="8" x="34" y="42" fill="#70bfff"/><rect width="8" height="8" x="46" y="42" fill="#70bfff"/><rect width="8" height="8" x="58" y="42" fill="#70bfff"/><rect width="8" height="8" x="70" y="42" fill="#70bfff"/><rect width="8" height="8" x="22" y="54" fill="#70bfff"/><rect width="8" height="8" x="34" y="54" fill="#70bfff"/><rect width="8" height="8" x="46" y="54" fill="#70bfff"/><rect width="8" height="8" x="58" y="54" fill="#ff7575"/><rect width="8" height="8" x="70" y="54" fill="#70bfff"/><rect width="8" height="8" x="22" y="66" fill="#70bfff"/><rect width="8" height="8" x="34" y="66" fill="#70bfff"/><rect width="8" height="8" x="46" y="66" fill="#70bfff"/><rect width="8" height="8" x="58" y="66" fill="#70bfff"/><path fill="#40396e" d="M29,15l0-3.83c0-1.624,1.216-3.08,2.838-3.165C33.568,7.913,35,9.289,35,11v4c0,1.105,0.895,2,2,2h1 l0-5.791c0-3.049-2.186-5.77-5.21-6.158C29.131,4.581,26,7.432,26,11v6h1C28.105,17,29,16.105,29,15z"/><path fill="#40396e" d="M65,15l0-3.83c0-1.624,1.216-3.08,2.838-3.165C69.568,7.913,71,9.289,71,11v4c0,1.105,0.895,2,2,2h1 v-5.791c0-3.049-2.186-5.77-5.21-6.158C65.131,4.581,62,7.432,62,11v6h1C64.105,17,65,16.105,65,15z"/><circle cx="32" cy="24" r="5" fill="#40396e"/><circle cx="68" cy="24" r="5" fill="#40396e"/><path fill="#d9eeff" d="M32,27c-1.657,0-3-1.343-3-3V11c0-1.657,1.343-3,3-3s3,1.343,3,3v13C35,25.657,33.657,27,32,27z"/><path fill="#d9eeff" d="M68,27c-1.657,0-3-1.343-3-3V11c0-1.657,1.343-3,3-3s3,1.343,3,3v13C71,25.657,69.657,27,68,27z"/></svg>