<svg xmlns="http://www.w3.org/2000/svg"  viewBox="0 0 100 100" width="200px" height="200px"><path d="M29.5,99c-2.458,0-4.678-1.361-5.793-3.552 C20.648,89.442,17,79.716,17,67.5s3.648-21.942,6.708-27.95C24.822,37.361,27.042,36,29.5,36h3.037c1.846-3.026,5.17-5,8.963-5 h9.152c0.197-0.625,0.318-1.271,0.363-1.933c0.052-0.778-0.013-1.505-0.15-2.169l-31.984,6.953C18.432,33.95,17.965,34,17.499,34 c-3.034,0-5.705-2.152-6.35-5.118c-0.761-3.505,1.469-6.973,4.971-7.733l21.889-4.759C38.003,16.26,38,16.131,38,16 c0-4.963,4.038-9,9-9c0.71,0,1.402,0.083,2.065,0.239C50.651,5.846,52.729,5,55,5c3.859,0,4,5,8.436,5.862l21.684-4.714 c0.444-0.099,0.916-0.149,1.385-0.149c3.03,0,5.7,2.151,6.347,5.116c0.762,3.508-1.468,6.976-4.97,7.736l-24.318,5.287 c0.373,1.737,0.564,3.683,0.423,5.794c-0.026,0.387-0.062,0.772-0.108,1.155C67.088,31.502,69,34,71.463,36h3.065 c2.458,0,4.678,1.361,5.793,3.553c3.059,6.005,6.707,15.731,6.707,27.947S83.38,89.442,80.32,95.45 C79.207,97.639,76.987,99,74.528,99H29.5z" opacity=".35"/><path fill="#f2f2f2" d="M27.5,97c-2.458,0-4.678-1.361-5.793-3.552C18.648,87.442,15,77.716,15,65.5 s3.648-21.942,6.708-27.95C22.822,35.361,25.042,34,27.5,34h3.037c1.846-3.026,5.17-5,8.963-5h9.152 c0.197-0.625,0.318-1.271,0.363-1.933c0.052-0.778-0.013-1.505-0.15-2.169l-31.984,6.953C16.432,31.95,15.965,32,15.499,32 c-3.034,0-5.705-2.152-6.35-5.118c-0.761-3.505,1.469-6.973,4.971-7.733l21.889-4.759C36.003,14.26,36,14.131,36,14 c0-4.963,4.038-9,9-9c0.71,0,1.402,0.083,2.065,0.239C48.651,3.846,50.729,3,53,3c3.859,0,7.159,2.442,8.436,5.862l21.684-4.714 c0.444-0.099,0.916-0.149,1.385-0.149c3.03,0,5.7,2.151,6.347,5.116c0.762,3.508-1.468,6.976-4.97,7.736l-24.318,5.287 c0.373,1.737,0.564,3.683,0.423,5.794c-0.026,0.387-0.062,0.772-0.108,1.155c3.211,0.414,5.967,2.259,7.586,4.912h3.065 c2.458,0,4.678,1.361,5.793,3.553c3.059,6.005,6.707,15.731,6.707,27.947S81.38,87.442,78.32,93.45 C77.207,95.639,74.987,97,72.528,97H27.5z"/><circle cx="53" cy="12" r="4" fill="#40396e"/><circle cx="45" cy="14" r="4" fill="#40396e"/><path fill="none" stroke="#40396e" stroke-linecap="round" stroke-linejoin="round" stroke-miterlimit="10" stroke-width="3" d="M52.5,17.5c0.752,1.007,3.351,4.739,3,10c-0.271,4.062-2.157,6.881-3,8"/><line x1="15.5" x2="84.5" y1="25.5" y2="10.5" fill="none" stroke="#40396e" stroke-linecap="round" stroke-linejoin="round" stroke-miterlimit="10" stroke-width="3"/><path fill="#ffc571" d="M50,40.5c-17,0-5.5,0-22.5,0c-2.21,4.339-6,13.203-6,25s3.79,20.661,6,25H50h0.028h22.5 c2.21-4.339,6-13.203,6-25s-3.79-20.661-6-25c-17,0-5.5,0-22.5,0"/><path fill="#70bfff" d="M31.743,84h18.243h18.271C70.196,79.381,72,73.053,72,65.5S70.196,51.619,68.257,47H50.014 c-0.005,0-0.009,0-0.014,0s-0.009,0-0.014,0H31.743C29.804,51.618,28,57.945,28,65.5S29.804,79.382,31.743,84z"/><polygon fill="#ffc571" points="71,87 29,87 26,65 74,65"/><rect width="4" height="20" x="48" y="46" fill="#ffc571"/><rect width="29" height="5.5" x="35.5" y="36.5" fill="#9aa2e6"/><path fill="none" stroke="#40396e" stroke-linecap="round" stroke-linejoin="round" stroke-miterlimit="10" stroke-width="3" d="M72.528,40.5c-4.025,0-6.442,0-8.028,0v-1c0-2.209-1.791-4-4-4h-21c-2.209,0-4,1.791-4,4v1c-1.587,0-3.998,0-8,0 c-2.21,4.339-6,13.203-6,25s3.79,20.661,6,25H50h0.028h22.5c2.21-4.339,6-13.203,6-25S74.738,44.839,72.528,40.5z"/></svg>