<svg xmlns="http://www.w3.org/2000/svg"  viewBox="0 0 100 100" width="200px" height="200px"><path d="M5,76.5c0,3.584,2.916,6.5,6.5,6.5h79c3.584,0,6.5-2.916,6.5-6.5c0-3.423-2.661-6.23-6.023-6.476	c2.788-1.038,4.679-2.745,5.348-3.419l0.115-0.118c1.277-1.364,1.911-3.209,1.729-5.151c-0.105-0.954-0.793-5.733-4.279-9.762	c-2.503-4.598-6.985-8.152-12.115-9.577c-4.394-1.237-10.714-3.1-18.351-5.408L44.87,12.48c-1.016-1.327-2.478-2.203-4.09-2.462	l-8.489-1.41C31.938,8.549,31.58,8.52,31.223,8.52c-1.996,0-3.852,0.899-5.097,2.471c-0.522,0.661-0.901,1.401-1.134,2.174	c-0.429-0.16-0.878-0.276-1.342-0.345l-4.867-0.688c-0.332-0.053-0.671-0.08-1.007-0.08c-1.648,0-3.219,0.624-4.358,1.697	c-1.436,1.304-2.21,3.164-2.121,5.147l0.216,4.048c-1.093,0.686-1.984,1.699-2.529,2.947l-2.127,4.967	c-1.209,2.852-0.227,6.183,2.344,7.925l26.114,17.642c0.613,0.427,1.281,0.738,1.9,0.902L81.53,70H11.5C7.916,70,5,72.916,5,76.5z" opacity=".35"/><path fill="#f2f2f2" d="M3,74.5C3,78.084,5.916,81,9.5,81h79c3.584,0,6.5-2.916,6.5-6.5c0-3.423-2.661-6.23-6.023-6.476	c2.788-1.038,4.679-2.745,5.348-3.419l0.115-0.118c1.277-1.364,1.911-3.209,1.729-5.151c-0.105-0.954-0.793-5.733-4.279-9.762	c-2.503-4.598-6.985-8.152-12.115-9.577c-4.394-1.237-10.714-3.1-18.351-5.408L42.87,10.48c-1.016-1.327-2.478-2.203-4.09-2.462	l-8.489-1.41C29.938,6.549,29.58,6.52,29.223,6.52c-1.996,0-3.852,0.899-5.097,2.471c-0.522,0.661-0.901,1.401-1.134,2.174	c-0.429-0.16-0.878-0.276-1.342-0.345l-4.867-0.688c-0.332-0.053-0.671-0.08-1.007-0.08c-1.648,0-3.219,0.624-4.358,1.697	c-1.436,1.304-2.21,3.164-2.121,5.147l0.216,4.048c-1.093,0.686-1.984,1.699-2.529,2.947l-2.127,4.967	c-1.209,2.852-0.227,6.183,2.344,7.925l26.114,17.642c0.613,0.427,1.281,0.738,1.9,0.902L79.53,68H9.5C5.916,68,3,70.916,3,74.5z"/><path fill="#d9eeff" d="M12.964,26.452c0,0,47.376,14.849,65.054,19.799c4.269,1.196,7.183,4.278,8.485,7.071	c2.828,2.828,3.2,6.708,3.2,6.708s-3.135,3.282-7.151,2.07l-45.547-13.02L10.842,31.402L12.964,26.452z"/><polygon fill="#70bfff" points="31.669,14.944 36.884,15.814 62.477,49.087 43.76,43.581"/><polygon fill="#70bfff" points="17.386,18.295 19.663,18.621 25.354,31.866 15.892,28.959"/><path fill="#70bfff" d="M86.098,53.115l-0.292-1.804l-7.355-2.251c-0.795-0.233-1.628,0.221-1.862,1.016	c-0.162,0.545,0.003,1.109,0.378,1.484c0.172,0.172,0.387,0.304,0.638,0.378l9.204,2.794c0.15,0.044,0.3,0.057,0.448,0.054	L86.098,53.115z"/><path fill="#40396e" d="M84.366,63.871c-0.712,0-1.464-0.1-2.247-0.335L36.593,50.521c-0.152-0.043-0.296-0.111-0.428-0.2	L10.002,32.644c-0.596-0.403-0.822-1.172-0.539-1.833l2.121-4.95c0.303-0.708,1.093-1.072,1.828-0.84l1.346,0.42l-0.464-8.81	c-0.023-0.448,0.155-0.883,0.486-1.186c0.331-0.303,0.776-0.443,1.224-0.378l4.95,0.707c0.535,0.076,0.988,0.435,1.185,0.938	l4.914,12.559c2.617,0.813,5.494,1.704,8.524,2.64L27.845,13.6c-0.213-0.504-0.134-1.083,0.205-1.513	c0.339-0.429,0.881-0.639,1.424-0.55l8.485,1.415c0.375,0.063,0.711,0.264,0.942,0.565L58.435,38.91	c8.817,2.667,15.54,4.651,19.987,5.896c4.065,1.138,7.532,3.986,9.326,7.645c3.005,3.151,3.431,7.258,3.448,7.435	c0.042,0.435-0.107,0.864-0.409,1.18C90.659,61.2,88.056,63.871,84.366,63.871z M37.647,47.703l45.317,12.955	c2.273,0.685,4.215-0.49,5.12-1.198c-0.245-1.126-0.92-3.354-2.643-5.076c-0.124-0.124-0.225-0.269-0.299-0.427	c-1.076-2.309-3.62-5.166-7.53-6.261c-4.544-1.272-11.444-3.309-20.508-6.053c-0.3-0.091-0.563-0.273-0.754-0.521L36.883,15.813	l-5.214-0.869l7.923,18.767c0.227,0.537,0.122,1.157-0.269,1.589c-0.391,0.433-0.998,0.6-1.555,0.428	c-4.439-1.369-8.639-2.67-12.295-3.805c-0.436-0.135-0.786-0.461-0.952-0.886l-4.858-12.416l-2.278-0.326l0.481,9.143	c0.026,0.49-0.19,0.962-0.578,1.263c-0.388,0.302-0.9,0.394-1.367,0.247l-2.113-0.661l-1.099,2.565L37.647,47.703z"/><path fill="#40396e" d="M88.5,76h-79C8.671,76,8,75.328,8,74.5S8.671,73,9.5,73h79c0.829,0,1.5,0.672,1.5,1.5	S89.329,76,88.5,76z"/></svg>