<svg xmlns="http://www.w3.org/2000/svg"  viewBox="0 0 100 100" width="200px" height="200px"><path d="M76.52,96.635c-0.722,0-1.435-0.119-2.117-0.354l-28.017-9.633 c-2.563-0.882-4.308-3.266-4.384-5.965c-0.005-0.057-0.022-0.222-0.067-0.475c-6.78,1.852-11.592,2.967-14.36,2.967 c-5.329,0-8.381-2.196-10.003-4.038c-2.489-2.827-3.043-6.436-2.731-8.871c0.081-0.636,0.573-1.845,0.822-2.407 C8.93,62.268,5,55.656,5,47.5c0-3.314,0.506-6.339,1.507-9.034C5.522,36.66,5,34.625,5,32.5C5,25.607,10.607,20,17.5,20 c4.098,0,6.471,2.017,8.776,5.242c0.125,0.004,1.635,0.036,1.717,0.04c2.036,0.034,4.315,0.544,6.753,1.308 c-1.199-2.135-1.541-3.767-1.62-4.242c-0.553-3.32,1.572-6.559,4.837-7.374c0.485-0.122,0.956-0.236,1.416-0.343 c0.103-0.938,0.319-1.644,0.481-2.069c0.96-2.499,3.398-4.174,6.07-4.174c13.99,0,27.653,10.25,33.054,14.827 c3.085,0.407,8.02,1.639,11.72,5.34C96.597,34.446,99,38.423,99,42.282c0,5.487-7.223,14.273-15.884,14.702 c-3.328,0.686-6.482,3.925-10.12,7.659c-2.136,2.193-4.535,4.657-7.347,6.913c5.907,1.933,12.412,5.07,15.559,9.984 c2.034,3.178,2.577,6.756,1.571,10.348c-0.48,1.715-1.661,3.174-3.239,4.002C78.619,96.376,77.572,96.635,76.52,96.635z" opacity=".35"/><path fill="#f2f2f2" d="M74.52,94.635c-0.722,0-1.435-0.119-2.117-0.354l-28.017-9.633 c-2.563-0.882-4.308-3.266-4.384-5.965c-0.005-0.057-0.022-0.222-0.067-0.475c-6.78,1.852-11.592,2.967-14.36,2.967 c-5.329,0-8.381-2.196-10.003-4.038c-2.489-2.827-3.043-6.436-2.731-8.871c0.081-0.636,0.253-1.241,0.502-1.802 C6.611,60.872,3,53.656,3,45.5c0-3.314,0.506-6.339,1.507-9.034C3.522,34.66,3,32.625,3,30.5C3,23.607,8.607,18,15.5,18 c4.098,0,7.875,2.044,10.18,5.27c0.125,0.004,0.231,0.009,0.313,0.013c2.036,0.034,4.315,0.544,6.753,1.308 c-1.199-2.135-1.541-3.767-1.62-4.242c-0.553-3.32,1.572-6.559,4.837-7.374c0.485-0.122,0.956-0.236,1.416-0.343 c0.103-0.938,0.319-1.644,0.481-2.069c0.96-2.499,3.398-4.174,6.07-4.174c13.99,0,27.653,10.25,33.054,14.827 c3.085,0.407,8.02,1.639,11.72,5.34C94.597,32.446,97,36.423,97,40.282c0,5.487-7.223,14.273-15.884,14.702 c-3.328,0.686-6.482,3.925-10.12,7.659c-2.136,2.193-4.535,4.657-7.347,6.913c5.907,1.933,12.412,5.07,15.559,9.984 c2.034,3.178,2.577,6.756,1.571,10.348c-0.48,1.715-1.661,3.174-3.239,4.002C76.619,94.376,75.572,94.635,74.52,94.635z"/><polygon fill="#9ba7c5" points="19.288,69.091 21.046,73.404 28.438,74.685 41.517,71.517 46.708,68.618 36.056,62.146 26.551,67.27"/><polygon fill="#40396e" points="19.288,69.091 21.046,73.404 28.438,74.685 41.517,71.517 46.708,68.618 36.056,62.146 26.551,67.27" opacity=".35"/><circle cx="16.067" cy="31.034" r="6.236" fill="#9ba7c5"/><path fill="#9ba7c5" d="M43.5,69C32.167,69,11,62.107,11,45.5c0-13.214,10.724-14.241,14.011-14.241 c0.388,0,0.622,0.016,0.649,0.018l0.115,0.004c2.608,0,7.275,1.828,11.79,3.595c4.849,1.898,9.429,3.692,12.435,3.692 c3.679,0,8.415,0.432,10.911,0.689l0.156-1.492l1.444,0.402c0.221-0.794,0.49-1.563,0.804-2.301s0.674-1.446,1.078-2.119 l-1.286-0.771l0.172-1.49c-17.167-1.98-22.293-8.352-23.735-11.142c1.907-0.427,3.188-0.594,4.402-0.594 c0.535,0,1.066,0.034,1.623,0.105l-0.632-1.568l2.014-0.827c-0.988-1.301-1.389-2.322-1.542-3.02 c13.451,0.93,27.736,14.041,27.884,14.178l0.434,0.402l0.591-0.002c0.053,0,5.576,0.039,8.729,3.193 C88.571,37.734,89,39.785,89,40.282C88.897,41.382,85.096,47,80.456,47H80.34l-0.114,0.018 c-6.095,0.941-10.401,5.365-14.958,10.049C59.559,62.934,53.655,69,43.5,69z"/><path fill="#40396e" d="M43.514,12.888c0,0,1.719,2.347,1.415,4.258c-0.251,1.578-2.695,2.678-1.456,3.504 c2.739,1.826,24.655,9.131,24.655,9.131s2.739-0.913,6.392-0.913l-5.488-5.628L55.344,15.17L43.514,12.888z" opacity=".35"/><path fill="#9ba7c5" d="M73.607,29.781c-5.479-1.826-14.61-10.664-36.069-10.208l33.786,12.49L73.607,29.781z"/><path fill="#f4a3be" d="M44.387,22.476c0,0,11.871,0,22.828,7.305C67.215,29.781,49.865,29.781,44.387,22.476z"/><circle cx="79.999" cy="35.999" r="1.999" fill="#40396e"/><polygon fill="#9ba7c5" points="42.461,67.101 46.008,75.62 48.269,79.108 74.52,87.124 71.542,80.652 53.18,73.573 50.431,69.505 50,64.27"/><path fill="none" stroke="#40396e" stroke-linecap="round" stroke-linejoin="round" stroke-miterlimit="10" stroke-width="3" d="M84.108,31.15c-3.653-3.653-9.795-3.632-9.795-3.632S58.54,12.888,43.93,12.888c0,0-0.784,2.043,1.826,5.479 c-2.452-0.31-4.566,0-8.218,0.913c0,0,1.826,10.958,25.568,13.697c-1.003,1.672-1.636,3.341-2.039,4.789 c-2.673-0.276-7.362-0.698-11.067-0.698c-5.5,0-18.5-7.287-24.225-7.287c0,0-1.848-0.143-4.296,0.314 C21.27,26.971,18.677,24.5,15.5,24.5c-3.314,0-6,2.686-6,6c0,2.126,1.108,3.989,2.776,5.054C10.624,37.851,9.5,41.042,9.5,45.5 c0,11.552,9.698,18.943,19.992,22.498c-3.077,0.653-6.514,1.093-10.204,1.093c0,0-0.713,5.584,6.287,5.584 c3.847,0,17.498-4.175,17.925-4.175c0.07,0,0.135-0.006,0.204-0.007C46.487,74.901,46.5,78.5,46.5,78.5l28.02,9.635 C77.5,77.5,52.5,73.5,52.5,73.5c-0.952-0.952-1.576-2.34-2.069-3.995C63.976,65.454,69.236,50.232,80.456,48.5 c5.479,0,10.044-6.392,10.044-8.218C90.5,39.369,90.061,37.103,84.108,31.15z"/><path fill="#40396e" d="M52.5,75c-0.384,0-0.768-0.146-1.061-0.439c-2.059-2.059-3.012-5.526-3.012-9.507 c0-10.013-13.35-19.027-13.35-19.027S50.84,50.719,50.84,64.634c0,3.496,1.3,6.385,2.721,7.806c0.586,0.585,0.586,1.536,0,2.121 C53.268,74.854,52.884,75,52.5,75z" opacity=".35"/></svg>