<svg xmlns="http://www.w3.org/2000/svg"  viewBox="0 0 100 100" width="200px" height="200px"><path d="M26.5,97C20.71,97,16,92.29,16,86.5v-65C16,15.71,20.71,11,26.5,11h13.967 C42.653,6.812,47.041,4,52,4s6.814,2.812,9,7h16.5C83.29,11,88,15.71,88,21.5v65C88,92.29,83.29,97,77.5,97H26.5z" opacity=".35"/><path fill="#f2f2f2" d="M24.5,95C18.71,95,14,90.29,14,84.5v-65C14,13.71,18.71,9,24.5,9h13.967 C40.653,4.812,45.041,2,50,2s9.347,2.812,11.533,7H75.5C81.29,9,86,13.71,86,19.5v65C86,90.29,81.29,95,75.5,95H24.5z"/><path fill="#707cc0" d="M75.5,15.5H56.475c0.013-0.166,0.025-0.331,0.025-0.5c0-3.59-2.91-6.5-6.5-6.5s-6.5,2.91-6.5,6.5 c0,0.169,0.013,0.334,0.025,0.5H24.5c-2.209,0-4,1.791-4,4v65c0,2.209,1.791,4,4,4h51c2.209,0,4-1.791,4-4v-65 C79.5,17.291,77.709,15.5,75.5,15.5z"/><path fill="#d9eeff" d="M72,83H28c-1.105,0-2-0.895-2-2V23c0-1.105,0.895-2,2-2h44c1.105,0,2,0.895,2,2v58 C74,82.105,73.105,83,72,83z"/><circle cx="50" cy="15" r="5" fill="#70bfff"/><path fill="#70bfff" d="M61,25H39c-2.209,0-4-1.791-4-4v-5h30v5C65,23.209,63.209,25,61,25z"/><path fill="none" stroke="#40396e" stroke-linejoin="round" stroke-miterlimit="10" stroke-width="3" d="M75.5,15.5H56.475 c0.013-0.166,0.025-0.331,0.025-0.5c0-3.59-2.91-6.5-6.5-6.5s-6.5,2.91-6.5,6.5c0,0.169,0.013,0.334,0.025,0.5H24.5 c-2.209,0-4,1.791-4,4v65c0,2.209,1.791,4,4,4h51c2.209,0,4-1.791,4-4v-65C79.5,17.291,77.709,15.5,75.5,15.5z"/><circle cx="50" cy="15" r="2" fill="#40396e"/><g><path fill="#7abd30" d="M44.008,62.5c-0.767,0-1.534-0.292-2.12-0.877l-7.008-7c-1.172-1.171-1.173-3.07-0.002-4.243 c1.17-1.172,3.069-1.174,4.243-0.002l4.886,4.881l16.872-16.879c1.17-1.171,3.07-1.173,4.243,0c1.171,1.171,1.172,3.071,0,4.243 l-18.992,19C45.545,62.207,44.776,62.5,44.008,62.5z"/></g></svg>