<svg xmlns="http://www.w3.org/2000/svg"  viewBox="0 0 100 100" width="200px" height="200px"><path d="M13.3,85c-2.9,0-5.5-2-6.3-4.8c-0.8-2.8,0.4-5.8,2.9-7.3c2.3-1.4,4-4.6,4.7-7.1c0-0.2,0.1-0.3,0.2-0.5	c-0.8-1.1-1.2-2.4-1.2-3.8c0-3.7,1.5-7.2,4.1-9.8c2.1-12.9,12.3-23.4,25-26C44,21.8,47.7,19,52,19c4.3,0,7.9,2.7,9.3,6.4	c14,2.3,24.7,13.5,26.3,27.7c1.8,2.4,2.8,5.3,2.8,8.4c0,1-0.2,2-0.7,2.8c0.2,0.5,0.4,1,0.6,1.5c0.7,2.5,2.4,5.7,4.7,7.1	c2.5,1.5,3.7,4.5,2.9,7.3C97.2,83,94.6,85,91.7,85H13.3z" opacity=".35"/><path fill="#f2f2f2" d="M11.3,83c-2.9,0-5.5-2-6.3-4.8c-0.8-2.8,0.4-5.8,2.9-7.3c2.3-1.4,4-4.6,4.7-7.1c0-0.2,0.1-0.3,0.2-0.5	c-0.8-1.1-1.2-2.4-1.2-3.8c0-3.7,1.5-7.2,4.1-9.8c2.1-12.9,12.3-23.4,25-26C42,19.8,45.7,17,50,17c4.3,0,7.9,2.7,9.3,6.4	c14,2.3,24.7,13.5,26.3,27.7c1.8,2.4,2.8,5.3,2.8,8.4c0,1-0.2,2-0.7,2.8c0.2,0.5,0.4,1,0.6,1.5c0.7,2.5,2.4,5.7,4.7,7.1	c2.5,1.5,3.7,4.5,2.9,7.3C95.2,81,92.6,83,89.7,83H11.3z"/><path fill="#f9b84f" d="M50,33L50,33c-1.7,0-3-1.3-3-3v-3c0-1.7,1.3-3,3-3h0c1.7,0,3,1.3,3,3v3C53,31.7,51.7,33,50,33z"/><path fill="#ffc571" d="M89.7,76.5c-3.9-2.3-6.5-6.9-7.6-11.1H18.9c-1.1,4.2-3.7,8.7-7.6,11.1H89.7z"/><path fill="#ffc571" d="M79.4,54.1C78.9,41.3,67.8,31,54.1,31h-7.2c-13.4,0-24.3,9.9-25.2,22.4c-2.2,1.2-3.7,3.5-3.7,6.1H82 C82,57.4,80.9,55.4,79.4,54.1z"/><rect width="17" height="9" x="41.5" y="58" fill="#f9b84f"/><path fill="none" stroke="#40396e" stroke-linecap="round" stroke-linejoin="round" stroke-miterlimit="10" stroke-width="3" d="M82.1,65.4H58.5v-5.9H82c0-2.3-1-4.3-2.6-5.6c-0.5-13.5-11.6-24.4-25.2-24.4h-0.6V27c0-1.9-1.6-3.5-3.5-3.5 s-3.5,1.6-3.5,3.5v2.5c-13.2,0.2-23.9,10.5-24.8,23.6c-2.2,1.3-3.7,3.7-3.7,6.4h23.5v5.9H18.9c-1.1,4.2-3.7,8.7-7.6,11.1h78.4 C85.8,74.2,83.2,69.6,82.1,65.4z"/></svg>