<svg xmlns="http://www.w3.org/2000/svg"  viewBox="0 0 100 100" width="200px" height="200px"><path fill="#1d1d1b" d="M21.5,93c-3.584,0-6.5-2.916-6.5-6.5V75.151 c-6.815-2.04-10.93-7.436-12.607-12.423c-0.72-1.967-0.447-4.16,0.737-5.896C4.342,55.058,6.349,54,8.5,54 c5.122,0,8.979-0.926,11.5-2.755v-2.348c-6.293-2.311-9.14-7.705-9.857-11.034c-0.399-1.953,0.071-3.912,1.282-5.426 C12.729,30.862,14.559,30,16.5,30c3.919,0,6.877-1.857,8.5-3.197v-4.616c-1.232-1.184-2-2.848-2-4.687c0-3.584,2.916-6.5,6.5-6.5h2 c2.699,0,3.014,1.653,3.996,4H64.5c0.981-2.347,3.301-4,6-4h2c3.584,0,6.5,2.916,6.5,6.5c0,1.839-0.768,3.503-2,4.687v4.599 C78.646,28.134,81.625,30,85.5,30c1.941,0,3.771,0.862,5.018,2.367c1.269,1.584,1.739,3.543,1.351,5.443 c-0.727,3.372-3.575,8.774-9.868,11.087v2.348C84.521,53.074,88.378,54,93.5,54c2.151,0,4.158,1.058,5.368,2.829 c1.188,1.739,1.365,3.943,0.646,5.909C97.821,67.742,93.802,73.114,87,75.151V86.5c0,3.584-2.916,6.5-6.5,6.5H21.5z" opacity=".35"/><path fill="#f2f2f2" d="M19.5,91c-3.584,0-6.5-2.916-6.5-6.5V73.151c-6.815-2.04-10.822-7.412-12.499-12.4 c-0.72-1.967-0.555-4.183,0.629-5.92C2.342,53.058,4.349,52,6.5,52c5.122,0,8.979-0.926,11.5-2.755v-2.348 c-6.293-2.311-9.14-7.705-9.857-11.034c-0.399-1.953,0.071-3.912,1.282-5.426C10.729,28.862,12.559,28,14.5,28 c3.919,0,6.877-1.857,8.5-3.197v-4.616c-1.232-1.184-2-2.848-2-4.687c0-3.584,2.916-6.5,6.5-6.5h2c2.699,0,5.019,1.653,6,4h27 c0.981-2.347,3.301-4,6-4h2c3.584,0,6.5,2.916,6.5,6.5c0,1.839-0.768,3.503-2,4.687v4.599C76.646,26.134,79.625,28,83.5,28 c1.941,0,3.771,0.862,5.018,2.367c1.269,1.584,1.739,3.543,1.351,5.443c-0.727,3.372-3.575,8.774-9.868,11.087v2.348 C82.521,51.074,86.378,52,91.5,52c2.151,0,4.158,1.058,5.368,2.829c1.188,1.739,1.459,3.934,0.739,5.899 C95.915,65.732,91.802,71.114,85,73.151V84.5c0,3.584-2.916,6.5-6.5,6.5H19.5z"/><polygon fill="#f4665c" points="73.5,63 73.5,36 24.5,36 24.5,63 19.5,63 19.5,84.5 78.5,84.5 78.5,63"/><rect width="14" height="19" x="42" y="66" fill="#b73b3b"/><path fill="#b73b3b" d="M59,77h3v3h-3V77z M65,77h3v3h-3V77z M71,77h3v3h-3V77z M24,77h3v3h-3V77z M30,77h3v3h-3V77z M36,77	h3v3h-3V77z"/><path fill="#18796e" d="M5.5,58.5c0,0,1.932,4.941,7.002,7.5h72.996c5.07-2.559,7.002-7.5,7.002-7.5c-11,0-17-4-18.5-6H24	C22.5,54.5,16.5,58.5,5.5,58.5z"/><path fill="#18796e" d="M83.5,34.5c-9.5,0-15-7-15-7v-8h-39v8c0,0-5.5,7-15,7c0,0,0.507,3.444,4.261,5.5h60.478	C82.993,37.944,83.5,34.5,83.5,34.5z"/><path fill="#ffc571" d="M60,69h13v4.5H60V69z M25,69h13v4.5H25V69z"/><path fill="#ffc571" d="M43.5,43h11v4h-11V43z M59,43h9v4h-9V43z M30,43h9v4h-9V43z"/><rect width="49" height="3" x="24.5" y="40" fill="#40396e" opacity=".35"/><rect width="59" height="3" x="19.5" y="66" fill="#40396e" opacity=".35"/><path fill="#40396e" d="M28,27v7.5c0,0.828,0.672,1.5,1.5,1.5s1.5-0.672,1.5-1.5V27	H28z M67,27v7.5c0,0.828,0.672,1.5,1.5,1.5s1.5-0.672,1.5-1.5V27H67z" opacity=".35"/><path fill="#40396e" d="M92.738,57.653C92.458,57.244,91.995,57,91.5,57c-11.548,0-15.364-4.316-16.5-5.544v-8.527	c6.602-0.643,9.401-5.475,9.967-8.114c0.095-0.443-0.016-0.905-0.301-1.258C84.382,33.205,83.953,33,83.5,33	c-7.403,0-12.25-4.697-13.5-6.061V17h0.5c0.828,0,1.5-0.672,1.5-1.5S71.328,14,70.5,14h-2c-0.828,0-1.5,0.672-1.5,1.5V18H31v-2.5	c0-0.828-0.672-1.5-1.5-1.5h-2c-0.828,0-1.5,0.672-1.5,1.5c0,0.828,0.672,1.5,1.5,1.5H28v9.943C26.756,28.311,21.944,33,14.5,33	c-0.453,0-0.882,0.205-1.166,0.557c-0.285,0.353-0.396,0.814-0.301,1.258c0.565,2.64,3.365,7.472,9.967,8.114v8.527	C21.864,52.684,18.048,57,6.5,57c-0.495,0-0.958,0.244-1.238,0.653c-0.279,0.408-0.339,0.929-0.16,1.391	c0.153,0.394,2.76,9.369,12.898,9.929V84.5c0,0.828,0.672,1.5,1.5,1.5h59c0.828,0,1.5-0.672,1.5-1.5V68.973	c10.138-0.56,12.745-9.535,12.898-9.929C93.077,58.582,93.018,58.062,92.738,57.653z M79,66h-0.5c-0.828,0-1.5,0.672-1.5,1.5V83H21	V67.5c0-0.828-0.672-1.5-1.5-1.5H19c-6.085,0-8.475-3.679-10.032-6.063c13.186-0.691,16.575-6.808,16.766-7.083	C25.907,52.603,26,52.305,26,52V41.5c0-0.828-0.672-1.5-1.5-1.5c-4.668,0-6.859-2.396-7.83-4.113	c8.772-0.922,13.784-7.174,14.01-7.46C30.887,28.162,31,27.836,31,27.5V21h36v6.5c0,0.336,0.113,0.662,0.32,0.927	c0.226,0.286,5.236,6.538,14.01,7.46C80.357,37.606,78.166,40,73.5,40c-0.828,0-1.5,0.672-1.5,1.5V52	c0,0.305,0.093,0.603,0.267,0.854c0.19,0.275,3.58,6.392,16.766,7.083C87.473,62.323,85.083,66,79,66z"/></svg>