<svg xmlns="http://www.w3.org/2000/svg" xmlns:xlink="http://www.w3.org/1999/xlink" viewBox="0,0,256,256" width="200px" height="200px"><g fill-opacity="0.72941" fill="#fa5252" fill-rule="nonzero" stroke="none" stroke-width="1" stroke-linecap="butt" stroke-linejoin="miter" stroke-miterlimit="10" stroke-dasharray="" stroke-dashoffset="0" font-family="none" font-weight="none" font-size="none" text-anchor="none" style="mix-blend-mode: normal"><path d="M128,256c-70.69245,0 -128,-57.30755 -128,-128v0c0,-70.69245 57.30755,-128 128,-128v0c70.69245,0 128,57.30755 128,128v0c0,70.69245 -57.30755,128 -128,128z" id="shape"></path></g><g fill="none" fill-rule="nonzero" stroke="none" stroke-width="1" stroke-linecap="butt" stroke-linejoin="miter" stroke-miterlimit="10" stroke-dasharray="" stroke-dashoffset="0" font-family="none" font-weight="none" font-size="none" text-anchor="none" style="mix-blend-mode: normal"><g transform="scale(2.56,2.56)"><path d="M91.505,13.999c-0.169,0 -0.338,0.007 -0.502,0.02c-1.125,0.081 -27.681,1.981 -39.003,1.981c-11.322,0 -37.877,-1.9 -38.995,-1.98c-0.171,-0.014 -0.343,-0.021 -0.513,-0.021c-2.169,0 -4.185,1.079 -5.395,2.888c-1.296,1.938 -1.454,4.436 -0.411,6.521l1.314,2.592c0.8,1.598 2.362,1.478 4,2l1.25,5.287c0.098,0.343 0.223,0.672 0.372,0.987c-0.997,0.299 -1.912,0.837 -2.67,1.582c-1.617,1.583 -2.299,3.935 -1.78,6.133l2,8.498c0.693,2.951 3.295,5.013 6.328,5.013h2.5v31c0,3.584 2.916,6.5 6.5,6.5h7c3.584,0 6.5,-2.916 6.5,-6.5v-31h24v31c0,3.584 2.916,6.5 6.5,6.5h7c3.584,0 6.5,-2.916 6.5,-6.5v-31h2.5c3.032,0 5.635,-2.062 6.327,-5.011l2,-8.501c0.518,-2.201 -0.164,-4.551 -1.779,-6.132c-0.762,-0.746 -1.676,-1.283 -2.672,-1.582c0.15,-0.315 0.275,-0.646 0.374,-0.988l0.741,-2.594c1.64,-0.523 3.022,-1.686 3.822,-3.285l2,-4c1.044,-2.088 0.885,-4.589 -0.411,-6.521c-1.209,-1.807 -3.226,-2.887 -5.397,-2.887z" fill="#1d1d1b" opacity="0.35"></path><path d="M89.505,11.999c-0.169,0 -0.338,0.007 -0.502,0.02c-1.125,0.081 -27.681,1.981 -39.003,1.981c-11.322,0 -37.877,-1.9 -38.995,-1.98c-0.171,-0.014 -0.343,-0.021 -0.513,-0.021c-2.169,0 -4.185,1.079 -5.395,2.888c-1.296,1.938 -1.454,4.436 -0.411,6.521l2.002,4.003c0.8,1.598 2.183,2.759 3.821,3.281l0.742,2.596c0.098,0.343 0.223,0.672 0.372,0.987c-0.997,0.299 -1.912,0.837 -2.67,1.582c-1.617,1.583 -2.299,3.935 -1.78,6.133l2,8.498c0.693,2.95 3.295,5.012 6.327,5.012h2.5v31c0,3.584 2.916,6.5 6.5,6.5h7c3.584,0 6.5,-2.916 6.5,-6.5v-31h24v31c0,3.584 2.916,6.5 6.5,6.5h7c3.584,0 6.5,-2.916 6.5,-6.5v-31h2.5c3.032,0 5.635,-2.062 6.327,-5.011l2,-8.501c0.518,-2.201 -0.164,-4.551 -1.779,-6.132c-0.762,-0.746 -1.676,-1.283 -2.672,-1.582c0.15,-0.315 0.275,-0.646 0.374,-0.988l0.741,-2.594c1.64,-0.523 3.022,-1.686 3.822,-3.285l2,-4c1.044,-2.088 0.885,-4.589 -0.411,-6.521c-1.209,-1.807 -3.226,-2.887 -5.397,-2.887z" fill="#f2f2f2"></path><path d="M17.5,29.5h65l2,-7.5h-69z" fill="#b73b3b"></path><rect x="68.5" y="28" width="7" height="56.5" fill="#de5147"></rect><rect x="24.5" y="28" width="7" height="56.5" fill="#de5147"></rect><path d="M23.5,32h9c1.105,0 2,-0.895 2,-2v-2h-13v2c0,1.105 0.895,2 2,2zM67.5,32h9c1.105,0 2,-0.895 2,-2v-2h-13v2c0,1.105 0.895,2 2,2z" fill="#f4665c"></path><path d="M75.5,41.75c-1.47,0.2 -4.483,0.354 -5.923,0.394c-3.687,0.102 -35.467,0.102 -39.154,0c-1.44,-0.04 -4.453,-0.194 -5.923,-0.394c-2.271,-0.309 -9,-1.75 -9,-1.75v5.5h29.5h10h29.5v-5.5c0,0 -6.729,1.441 -9,1.75z" fill="#f4665c"></path><rect x="46.5" y="29.5" width="7" height="17.5" fill="#f9b84f"></rect><rect x="68.5" y="45.5" width="7" height="3" fill="#40396e" opacity="0.35"></rect><rect x="24.5" y="45.5" width="7" height="3" fill="#40396e" opacity="0.35"></rect><rect x="68.5" y="32" width="7" height="3" fill="#40396e" opacity="0.35"></rect><rect x="24.5" y="32" width="7" height="3" fill="#40396e" opacity="0.35"></rect><path d="M90.746,17.666c-0.3,-0.448 -0.824,-0.704 -1.354,-0.662c-0.275,0.019 -27.584,1.996 -39.392,1.996c-11.808,0 -39.117,-1.977 -39.391,-1.996c-0.541,-0.043 -1.056,0.214 -1.355,0.662c-0.299,0.448 -0.336,1.022 -0.095,1.505l2,4c0.254,0.508 0.773,0.829 1.341,0.829h1.869l1.689,5.912c0.184,0.644 0.772,1.088 1.442,1.088h2.528c0.192,1.736 1.377,3.178 2.972,3.743v3.87c-4.91,-0.491 -9.08,-1.554 -9.126,-1.566c-0.508,-0.13 -1.049,0.014 -1.423,0.382c-0.375,0.367 -0.531,0.904 -0.411,1.415l2,8.5c0.159,0.678 0.764,1.156 1.46,1.156h7.5v36c0,0.828 0.671,1.5 1.5,1.5h7c0.829,0 1.5,-0.672 1.5,-1.5v-36h34v36c0,0.828 0.672,1.5 1.5,1.5h7c0.828,0 1.5,-0.672 1.5,-1.5v-36h7.5c0.696,0 1.301,-0.479 1.46,-1.156l2,-8.5c0.12,-0.511 -0.035,-1.048 -0.41,-1.415c-0.376,-0.368 -0.915,-0.511 -1.424,-0.382c-0.046,0.013 -4.217,1.075 -9.126,1.566v-3.87c1.595,-0.565 2.779,-2.007 2.973,-3.743h2.527c0.67,0 1.258,-0.444 1.442,-1.088l1.69,-5.912h1.868c0.568,0 1.088,-0.321 1.342,-0.829l2,-4c0.241,-0.483 0.205,-1.057 -0.096,-1.505zM45,39.846c-3.412,-0.127 -7.435,-0.332 -12,-0.611v-4.491c1.595,-0.565 2.78,-2.007 2.972,-3.743h9.028zM48,41.398v-10.398h4v10.398v4.102h-4zM81.368,28h-2.868c-0.828,0 -1.5,0.672 -1.5,1.5v1c0,0.827 -0.673,1.5 -1.5,1.5c-0.828,0 -1.5,0.672 -1.5,1.5v6.746c0,0.416 0.173,0.813 0.477,1.097c0.305,0.283 0.702,0.438 1.128,0.399c3.508,-0.244 6.779,-0.817 8.886,-1.251l-1.179,5.009h-7.812c-0.828,0 -1.5,0.672 -1.5,1.5v36h-4v-36c0,-0.828 -0.672,-1.5 -1.5,-1.5h-13.5v-2.653c3.807,-0.14 8.368,-0.377 13.594,-0.706c0.791,-0.049 1.406,-0.704 1.406,-1.496v-7.145c0,-0.828 -0.672,-1.5 -1.5,-1.5c-0.827,0 -1.5,-0.673 -1.5,-1.5v-1c0,-0.828 -0.672,-1.5 -1.5,-1.5h-12h-7h-12c-0.829,0 -1.5,0.672 -1.5,1.5v1c0,0.827 -0.673,1.5 -1.5,1.5c-0.829,0 -1.5,0.672 -1.5,1.5v7.145c0,0.792 0.616,1.447 1.406,1.497c5.226,0.328 9.787,0.565 13.594,0.706v2.652h-13.5c-0.829,0 -1.5,0.672 -1.5,1.5v36h-4v-36c0,-0.828 -0.671,-1.5 -1.5,-1.5h-7.812l-1.179,-5.009c2.106,0.434 5.379,1.007 8.887,1.251c0.411,0.033 0.823,-0.116 1.127,-0.399c0.304,-0.283 0.477,-0.681 0.477,-1.097v-6.746c0,-0.828 -0.671,-1.5 -1.5,-1.5c-0.827,0 -1.5,-0.673 -1.5,-1.5v-1c0,-0.828 -0.671,-1.5 -1.5,-1.5h-2.869l-1.143,-4h65.023zM55,39.846v-8.846h9.027c0.193,1.736 1.378,3.178 2.973,3.743v4.491c-4.565,0.28 -8.588,0.485 -12,0.612z" fill="#40396e"></path></g></g></svg>