<svg xmlns="http://www.w3.org/2000/svg"  viewBox="0 0 100 100" width="200px" height="200px"><path d="M52.472,98.452c-3.204,0-6.07-1.788-7.479-4.666L27.007,56.29	c-8.752-4.6-10.114-10.558-10.114-13.813c0-2.988,1.068-7.15,5.771-10.979c0.169-1.452,0.624-2.855,1.358-4.158	c1.107-1.961,2.738-3.551,4.808-4.712c0.097-6.601,5.644-9.444,9.325-11.331c1.853-0.949,4.388-2.248,4.545-3.237	C43.185,4.879,46,2.453,49.243,2.453c0.346,0,0.694,0.028,1.035,0.083c10.8,1.718,18.015,6.068,21.472,12.942	c2.265,0.762,4.668,2.141,6.576,3.806c2.45,2.138,5.786,6.427,3.939,13.013c3.914,3.593,4.841,7.391,4.841,10.18	c0,3.042-1.207,8.638-8.947,13.167l-18.17,38.064c-1.371,2.9-4.234,4.725-7.464,4.744h-0.015H52.472z" opacity=".35"/><path fill="#f2f2f2" d="M50.472,96.452c-3.204,0-6.07-1.788-7.479-4.666L25.007,54.29	c-8.752-4.6-10.114-10.558-10.114-13.813c0-2.988,1.068-7.15,5.771-10.979c0.169-1.452,0.624-2.855,1.358-4.158	c1.107-1.961,2.738-3.551,4.808-4.712c0.097-6.601,5.644-9.444,9.325-11.331c1.853-0.949,4.388-2.248,4.545-3.237	C41.185,2.879,44,0.453,47.243,0.453c0.346,0,0.694,0.028,1.035,0.083c10.8,1.718,18.015,6.068,21.472,12.942	c2.265,0.762,4.668,2.141,6.576,3.806c2.45,2.138,5.786,6.427,3.939,13.013c3.914,3.593,4.841,7.391,4.841,10.18	c0,3.042-1.207,8.638-8.947,13.167l-18.17,38.064c-1.371,2.9-4.234,4.725-7.464,4.744h-0.015H50.472z"/><polygon fill="#f9b84f" points="50.439,90.319 25.851,41.085 74.149,41.085"/><path fill="#d47f56" d="M36.615,59.992l5.702-5.702l6.03,6.03l-6.03,6.03l-5.097-5.097l4.68,9.756l0.417-0.417l6.03,6.03	L45.81,79.16l1.375,2.867l3.283-3.283l3.279,3.279l1.371-2.871l-2.529-2.529l6.03-6.03l0.396,0.396l4.597-9.63l-4.993,4.993	l-6.03-6.03l6.03-6.03l5.663,5.663l1.371-2.871l-3.648-3.648c2.193-0.407,4.233-0.936,6.131-1.552l1.722-3.607	c0.146-0.307,0.392-0.554,0.698-0.702c4.225-2.054-44.896-1.626-40.075,0.474c0.331,0.144,0.598,0.401,0.754,0.727l1.643,3.424	c1.844,0.55,3.81,1.022,5.911,1.381l-3.547,3.547L36.615,59.992z M56.498,68.471l-6.03,6.03l-6.03-6.03l6.03-6.03L56.498,68.471z M50,54.489c1.469,0,2.905-0.048,4.31-0.132l-3.841,3.841l-3.785-3.785C47.77,54.464,48.876,54.489,50,54.489z"/><path fill="#f4a3be" d="M72.217,31.678c0.15-0.907,1.676-0.162,0.164-1.754c-0.412-0.434,0.687-0.177,1.002-0.702	c1.265-2.092,0.179-5.583-1.331-7.56c-1.213-1.589-3.113-2.564-5.219-2.68c-1.072-0.059-1.936-0.668-2.31-1.626	c-2.137-5.47-7.945-8.969-17.282-10.402c-0.041,0-0.109,0.044-0.121,0.125c-0.677,4.098-4.567,6.026-7.999,7.725	c-3.108,1.539-5.792,2.868-5.792,5.527c0,0.388,0.212,0.974,0.582,1.608c0.315,0.539,0.321,1.157,0.014,1.697	c-0.303,0.532-0.887,0.941-1.601,1.123c-2.2,0.558-3.804,1.608-4.638,3.034c-0.714,1.224-0.782,2.64-0.226,4.058	c-3.798,2.063-6.067,4.659-6.067,7.481c0,6.714,12.807,12.156,28.606,12.156s28.606-5.443,28.606-12.156	C78.606,36.431,76.21,33.768,72.217,31.678z"/><path fill="none" stroke="#40396e" stroke-linecap="round" stroke-linejoin="round" stroke-miterlimit="10" stroke-width="3" d="M78.606,40.476c0-3.004-2.396-5.762-6.389-7.926c0.15-0.939,4.676-6.146-0.166-10.37c-1.54-1.343-3.672-2.457-5.219-2.775	c-1.052-0.216-1.936-0.691-2.31-1.683c-2.137-5.663-7.945-9.285-17.282-10.769c-0.041,0-0.109,0.046-0.121,0.129	c-0.677,4.243-4.567,6.239-7.999,7.998c-3.108,1.594-5.792,2.969-5.792,5.723c0,0.401,0.212,1.009,0.582,1.665	c0.315,0.558,0.321,1.198,0.014,1.757c-0.303,0.551-0.887,0.975-1.601,1.162c-2.2,0.578-3.804,1.665-4.638,3.142	c-0.714,1.267-0.782,2.733-0.226,4.202c-3.798,2.136-6.067,4.823-6.067,7.745c0,3.499,3.248,6.664,8.487,8.945l18.951,39.507	c0.672,1.375,2.637,1.362,3.291-0.022l19.088-39.986C75.806,46.688,78.606,43.726,78.606,40.476z"/><ellipse cx="39.676" cy="33.81" fill="#40396e" rx="2.676" ry="4.588"/><ellipse cx="60.324" cy="33.81" fill="#40396e" rx="2.676" ry="4.588"/><circle cx="40.346" cy="32.663" r="1.147" fill="#f2f2f2"/><circle cx="61.041" cy="32.663" r="1.147" fill="#f2f2f2"/><path fill="#40396e" d="M55.353,39.122c0,3.379-2.397,6.118-5.353,6.118s-5.353-2.739-5.353-6.118"/></svg>