<svg xmlns="http://www.w3.org/2000/svg"  viewBox="0 0 100 100" width="200px" height="200px"><g id="Слой_2"><path d="M71.5,6.234c-7.995,0-14.5,6.505-14.5,14.5c0,0.432,0.02,0.863,0.058,1.292c-13.79,0.583-32.34,10.771-39.418,17.848 c-11.502,11.502-11.502,30.218,0,41.72c5.573,5.572,12.981,8.64,20.86,8.64c7.879,0,15.287-3.068,20.859-8.64 c6.409-6.41,17.207-24.778,17.836-39.419c0.429,0.039,0.864,0.059,1.304,0.059c7.995,0,14.5-6.505,14.5-14.5 c0-5.741-3.323-10.804-8.357-13.142C81,13,77.241,6.234,71.5,6.234L71.5,6.234z" opacity=".35"/><path fill="#f2f2f2" d="M69.5,4.234c-7.995,0-14.5,6.505-14.5,14.5c0,0.432,0.02,0.863,0.058,1.292 c-13.79,0.583-32.34,10.771-39.418,17.848c-11.502,11.502-11.502,30.218,0,41.72c5.573,5.572,12.981,8.64,20.86,8.64 c7.879,0,15.287-3.068,20.859-8.64c6.409-6.41,17.207-24.778,17.836-39.419c0.429,0.039,0.864,0.059,1.304,0.059 c7.995,0,14.5-6.505,14.5-14.5c0-5.741-3.323-10.804-8.357-13.142C80.304,7.558,75.241,4.234,69.5,4.234L69.5,4.234z"/><path fill="#d9eeff" d="M77,18C76.822,18,77,18.178,77,18c0-3.59-3.91-6-7.5-6S63,14.91,63,18.5c0,0.87,0.172,1.699,0.482,2.456 c0.72,1.754,0.444,3.754-0.897,5.095L52,32l10,13l6.905-12.635c1.429-1.429,3.566-1.636,5.406-0.802 C74.967,31.861,75.717,32,76.5,32c3.59,0,6.5-2.91,6.5-6.5S80.59,18,77,18z"/><path d="M66.621,28.379c-1.074-1.074-2.374-1.897-3.869-2.495L59,28c1.622,0.431,4.408,1.408,5.5,2.5 c1.075,1.075,2.066,3.91,2.5,5.5l2.11-3.84C68.535,30.758,67.723,29.48,66.621,28.379z" opacity=".35"/><path fill="#d47f56" d="M51.703,73.703c-8.396,8.396-22.009,8.396-30.406,0s-8.396-22.009,0-30.406S56.104,22.104,64.5,30.5 S60.099,65.307,51.703,73.703z"/><path fill="#ffb789" d="M33.616,57.674c-2.857,2.857-7.49,2.857-10.348,0c-2.857-2.857-2.857-7.49,0-10.348 c2.857-2.857,11.845-7.213,14.703-4.355C40.828,45.828,36.473,54.816,33.616,57.674z"/><path fill="#40396e" d="M36.5,83.001c-6.544,0-12.696-2.549-17.324-7.176c-9.552-9.553-9.552-25.096,0-34.648 c6.534-6.533,24.663-16.41,37.1-16.41c0.001,0,0.001,0,0.002,0c1.093,0,2.141,0.075,3.126,0.225l1.826-1.826 C60.431,21.747,60,20.131,60,18.501c0-5.238,4.262-9.5,9.5-9.5c4.432,0,8.221,3.053,9.235,7.266C82.947,17.28,86,21.069,86,25.501 c0,5.238-4.262,9.5-9.5,9.5c-1.759,0-3.346-0.482-4.606-1.382L70,35.514c1.978,12.79-9.35,33.485-16.175,40.312 C49.196,80.452,43.044,83.001,36.5,83.001z M56.277,27.767c-11.689-0.001-28.795,9.348-34.98,15.531 c-8.382,8.383-8.382,22.023,0,30.406c4.061,4.061,9.46,6.297,15.203,6.297s11.142-2.236,15.203-6.297 c6.73-6.731,17.533-27.095,15.212-38.396c-0.102-0.494,0.052-1.006,0.409-1.362l3.456-3.455c0.295-0.296,0.692-0.472,1.119-0.438 c0.417,0.017,0.81,0.206,1.081,0.523c0.798,0.932,2.016,1.425,3.521,1.425c3.584,0,6.5-2.916,6.5-6.5 c0-3.294-2.464-6.068-5.731-6.455c-0.689-0.081-1.232-0.624-1.314-1.313c-0.386-3.268-3.161-5.731-6.455-5.731 c-3.584,0-6.5,2.916-6.5,6.5c0,1.417,0.477,2.819,1.343,3.948c0.458,0.597,0.403,1.441-0.129,1.974l-3.24,3.24 c-0.354,0.355-0.861,0.511-1.354,0.41C58.601,27.87,57.476,27.767,56.277,27.767z"/></g></svg>