<svg xmlns="http://www.w3.org/2000/svg"  viewBox="0 0 100 100" width="300px" height="300px"><path d="M90.5,70H22.289l26.453-5.12c0.668-0.13,1.31-0.364,1.914-0.698l41.329-22.955 c7.004-3.757,7.038-11.519,7.019-12.405c-0.046-1.886-0.906-3.656-2.375-4.868c-0.74-0.606-4.569-3.53-9.968-3.914 c-1.759-0.522-3.601-0.787-5.483-0.787c-3.453,0-6.864,0.893-9.864,2.581c-3.743,2.105-9.39,5.183-16.797,9.156l-30.176-3.936 C24.059,27.018,23.777,27,23.497,27c-1.359,0-2.665,0.418-3.775,1.21l-6.999,4.999c-1.931,1.379-2.957,3.699-2.678,6.046 c0.097,0.834,0.353,1.626,0.739,2.341C10.367,41.788,9.97,42.023,9.6,42.3l-4.005,3.004c-1.56,1.173-2.503,2.963-2.588,4.901 C2.918,52.155,3.548,52.692,5,54l3.16,4.039c-0.288,1.251-0.207,2.598,0.305,3.875l1.999,4.996 c0.525,1.316,1.444,2.375,2.583,3.09H11.5C7.916,70,5,72.916,5,76.5S7.916,83,11.5,83h79c3.584,0,6.5-2.916,6.5-6.5 S94.084,70,90.5,70z" opacity=".35"/><path fill="#f2f2f2" d="M88.5,68H20.289l26.453-5.12c0.668-0.13,1.31-0.364,1.914-0.698l41.329-22.955 c7.004-3.757,7.038-11.519,7.019-12.405c-0.046-1.886-0.906-3.656-2.375-4.868c-0.74-0.606-4.569-3.53-9.968-3.914 c-1.759-0.522-3.601-0.787-5.483-0.787c-3.453,0-6.864,0.893-9.864,2.581c-3.743,2.105-9.39,5.183-16.797,9.156l-30.176-3.936 C22.059,25.018,21.777,25,21.497,25c-1.359,0-2.665,0.418-3.775,1.21l-6.999,4.999c-1.931,1.379-2.957,3.699-2.678,6.046 c0.097,0.834,0.353,1.626,0.739,2.341C8.367,39.788,7.97,40.023,7.6,40.3l-4.005,3.004c-1.56,1.173-2.503,2.963-2.588,4.901 c-0.089,1.951,0.692,3.819,2.145,5.127l3.009,2.707c-0.288,1.251-0.207,2.598,0.305,3.875l1.999,4.996 c0.525,1.316,1.444,2.375,2.583,3.09H9.5C5.916,68,3,70.916,3,74.5S5.916,81,9.5,81h79c3.584,0,6.5-2.916,6.5-6.5 S92.084,68,88.5,68z"/><path fill="#d9eeff" d="M12.5,56.5c0,0,44-23,60-32c3.864-2.173,8.104-2.054,11-1c4,0,7.006,2.48,7.006,2.48 s0.104,4.537-3.593,6.52L45.5,55.5l-31,6L12.5,56.5z"/><polygon fill="#70bfff" points="17.59,35.136 21.892,32.064 63.517,37.494 46.389,46.836"/><polygon fill="#70bfff" points="9.859,47.605 11.7,46.225 25.09,51.567 16.343,56.202"/><path fill="#70bfff" d="M83.067,23.64l-1.482-1.069l-6.793,3.609c-0.727,0.397-0.995,1.308-0.598,2.035 c0.271,0.5,0.786,0.782,1.317,0.782c0.243,0,0.489-0.059,0.718-0.184l8.484-4.532c0.137-0.075,0.252-0.172,0.355-0.279 L83.067,23.64z"/><path fill="none" stroke="#40396e" stroke-linecap="round" stroke-linejoin="round" stroke-miterlimit="10" stroke-width="3" d="M90.506,25.98c0,0-3.006-2.48-7.006-2.48c-2.896-1.054-7.136-1.173-11,1c-4.543,2.555-11.344,6.24-18.754,10.206L21.5,30.5l-7,5 l21.398,8.693c-4.106,2.171-7.995,4.22-11.382,6.002L11.5,44.5l-4,3l8.161,7.345C13.659,55.894,12.5,56.5,12.5,56.5l2,5l31-6 l41.413-23C90.609,30.517,90.506,25.98,90.506,25.98z"/><line x1="9.5" x2="88.5" y1="74.5" y2="74.5" fill="none" stroke="#40396e" stroke-linecap="round" stroke-linejoin="round" stroke-miterlimit="10" stroke-width="3"/></svg>