<svg xmlns="http://www.w3.org/2000/svg"  viewBox="0 0 100 100" width="200px" height="200px"><path d="M52,91.431c-23.178,0-40-8.529-40-20.281c0-0.207,0.037-37.759,0.037-37.759	c0.003-0.143,0.008-0.408,0.008-0.563c0-11.752,16.804-20.281,39.955-20.281c23.178,0,40,8.529,40,20.281v38.322	C92,82.901,75.178,91.431,52,91.431z" opacity=".35"/><path fill="#f2f2f2" d="M50,89.431c-23.178,0-40-8.529-40-20.281c0-0.207,0.037-37.759,0.037-37.759	c0.003-0.143,0.008-0.408,0.008-0.563c0-11.752,16.804-20.281,39.955-20.281c23.178,0,40,8.529,40,20.281v38.322	C90,80.901,73.178,89.431,50,89.431z"/><path fill="#707cc0" d="M16.534,31.596c0,0-0.034,37.347-0.034,37.554c0,7.611,14.998,13.781,33.5,13.781	s33.5-6.17,33.5-13.781c0-0.207,0-37.554,0-37.554H16.534z"/><path fill="#ffe8d9" d="M50,18.394c-17.638,0-31.936,5.724-31.936,12.785S32.362,43.965,50,43.965	s31.936-5.724,31.936-12.785S67.638,18.394,50,18.394z"/><path fill="none" stroke="#40396e" stroke-linecap="round" stroke-linejoin="round" stroke-miterlimit="10" stroke-width="3" d="M83.5,30.827c0-7.611-14.998-13.781-33.5-13.781s-33.455,6.17-33.455,13.781c0,0.258-0.011,0.769-0.011,0.769	S16.5,68.943,16.5,69.15c0,7.611,14.998,13.781,33.5,13.781s33.5-6.17,33.5-13.781c0-0.207,0-37.554,0-37.554	S83.5,31.085,83.5,30.827z"/><path fill="#d84178" d="M50,25.512c-8.845,0-16.014,2.537-16.014,5.667s7.17,5.667,16.014,5.667s16.014-2.537,16.014-5.667	S58.845,25.512,50,25.512z"/><ellipse cx="38.022" cy="61.488" fill="#40396e" rx="3.105" ry="5.324"/><ellipse cx="61.978" cy="61.488" fill="#40396e" rx="3.105" ry="5.324"/><circle cx="38.798" cy="60.157" r="1.331" fill="#f2f2f2"/><circle cx="62.81" cy="60.157" r="1.331" fill="#f2f2f2"/><path fill="#40396e" d="M56.211,68c0,3.728-2.781,6.75-6.211,6.75s-6.211-3.022-6.211-6.75H56.211z"/></svg>