<svg xmlns="http://www.w3.org/2000/svg"  viewBox="0 0 100 100" width="200px" height="200px" baseProfile="basic"><path fill="#70BFFF" d="M50,87.5c-20.625,0-37.5-16.875-37.5-37.5S29.375,12.5,50,12.5S87.5,29.375,87.5,50S70.625,87.5,50,87.5z"/><path fill="#2785BD" d="M79.2304077,26.590271C80.0774536,29.9248047,80.5319214,33.4115601,80.5319214,37	c0,23.3925171-19.1393433,42.5319214-42.5319214,42.5319214c-4.7839966,0-9.3847046-0.8121948-13.6856079-2.2858276	C31.0386353,83.5906982,40.0822144,87.5,50,87.5c20.625,0,37.5-16.875,37.5-37.5	C87.5,41.1621094,84.3947754,33.0183716,79.2304077,26.590271z"/><path fill="none" stroke="#40396E" stroke-miterlimit="10" stroke-width="3" d="M50,87.5c-20.625,0-37.5-16.875-37.5-37.5	S29.375,12.5,50,12.5S87.5,29.375,87.5,50S70.625,87.5,50,87.5z"/><path fill="#D9EEFF" d="M39.0990906,22.7074986c-1.6714516-1.6714516-5.9160156-0.1389904-9.478693,3.423687	s-5.0951385,7.8060513-3.423687,9.478693c1.6714535,1.6714516,5.9160137,0.1389885,9.478693-3.423687	C39.2392693,28.6223259,40.7717285,24.378952,39.0990906,22.7074986z"/></svg>