<svg xmlns="http://www.w3.org/2000/svg"  viewBox="0 0 100 100" width="200px" height="200px"><path fill="#1d1d1b" d="M32.76,94c-5.743,0-10.861-3.836-12.471-9.338l-6.837-21.757	C9.058,58.611,7,53.358,7,46.5c0-7.528,5.984-15.965,15.868-18.027c3.39-6.979,9.659-11.745,17.224-13.088	c2.345-3.757,5.81-5.481,8.05-6.597c0.226-0.113,0.621-0.31,0.972-0.497c0.313-1.652,1.26-3.139,2.664-4.119	C52.879,3.404,54.165,3,55.502,3c0.756,0,1.5,0.131,2.211,0.388c1.782,0.648,16.348,6.249,20.988,17.63	c8.163,2.979,17.118,12.064,18.254,21.724c0.708,6.017-1.65,11.94-6.088,15.616L82.699,84.73C81.123,90.153,75.989,94,70.24,94	H32.76z" opacity=".35"/><path fill="#f2f2f2" d="M30.76,92c-5.743,0-10.861-3.836-12.471-9.338l-6.837-21.757C7.058,56.611,5,51.358,5,44.5	c0-7.528,5.984-15.965,15.868-18.027c3.39-6.979,9.659-11.745,17.224-13.088c2.345-3.757,5.81-5.481,8.05-6.597	c0.226-0.113,0.621-0.31,0.972-0.497c0.313-1.652,1.26-3.139,2.664-4.119C50.879,1.404,52.165,1,53.502,1	c0.756,0,1.5,0.131,2.211,0.388c1.782,0.648,16.348,6.249,20.988,17.63c8.163,2.979,17.118,12.064,18.254,21.724	c0.708,6.017-1.65,11.94-6.088,15.616L80.699,82.73C79.123,88.153,73.989,92,68.24,92H30.76z"/><path fill="#ffb789" d="M24.518,80.803c0.792,2.766,3.358,4.697,6.242,4.697h37.48c2.876,0,5.445-1.929,6.25-4.693	L83.84,50.5H15.163L24.518,80.803z"/><path fill="#40396e" d="M15.163,50.5l2.871,9.3C21.428,61.977,25.639,63,31,63	c9.501,0,22.41-1.978,30.473-7.5H75.5c2.83,0,5.167-0.401,7.172-1.213L83.84,50.5H15.163z" opacity=".35"/><path fill="#f4a3be" d="M71.5,24.5c-1.5-11-18-17-18-17c0,6-9,4-11,12c-9,0-15,6-17,13c-8,0-14,6-14,12	c0,9,7.893,15.5,19.5,15.5c11.554,0,22.987-2.834,29.128-7.221L60.52,52.5H75.5c7.953,0,13.759-4.545,13-11	C87.5,33,77,24.5,71.5,24.5z"/><path fill="#40396e" d="M47,33c0,0,4.5,2.5,13.5,0.5c6.174-1.372,10-5,9.5-9h1.814	l2.5,1C74.5,32,68.041,35.759,62.5,36.5C52.5,37.837,47,33,47,33z" opacity=".35"/><path fill="#40396e" d="M50.5,48.222c0,0-8.5,0.778-14.5-2	C29.504,43.215,26,37,27,32.5h-2.314L22.5,33c-0.5,7,1.992,12.52,9,15.222C40,51.5,50.5,48.222,50.5,48.222z" opacity=".35"/><ellipse cx="39.676" cy="68.106" fill="#40396e" rx="2.676" ry="4.588"/><path fill="#40396e" d="M68.24,87H30.76c-3.549,0-6.709-2.379-7.685-5.784l-7.252-23.079C11.746,54.591,10,50.485,10,44.5	c0-6.255,5.734-12.935,14.388-13.466c2.599-7.598,9.1-12.571,16.989-13.004c1.416-3.989,4.486-5.519,6.993-6.767	C50.821,10.042,52,9.372,52,7.5c0-0.489,0.238-0.948,0.64-1.229c0.402-0.28,0.914-0.348,1.373-0.182	c0.685,0.249,16.251,6.029,18.758,17.022c6.304,1.055,16.181,9.383,17.219,18.213l0,0c0.651,5.535-2.173,9.911-5.413,11.986	l-8.654,27.94C74.941,84.626,71.778,87,68.24,87z M54.657,9.604c-0.823,2.29-2.99,3.369-4.95,4.345	c-2.51,1.251-4.881,2.432-5.752,5.916C43.788,20.531,43.188,21,42.5,21c-8.971,0-13.987,6.417-15.558,11.912	C26.759,33.556,26.17,34,25.5,34C18.134,34,13,39.533,13,44.5c0,5.235,1.474,8.604,5.087,11.625	c0.221,0.184,0.383,0.427,0.469,0.701l7.393,23.527C26.568,82.516,28.542,84,30.76,84h37.48c2.213,0,4.19-1.485,4.81-3.612	l8.831-28.512c0.114-0.369,0.366-0.681,0.704-0.868c2.581-1.433,4.949-4.874,4.426-9.333C86.114,34.058,76.279,26,71.5,26	c-0.75,0-1.385-0.554-1.486-1.297C68.924,16.71,58.732,11.417,54.657,9.604z"/><ellipse cx="60.324" cy="68.106" fill="#40396e" rx="2.676" ry="4.588"/><circle cx="40.346" cy="66.959" r="1.147" fill="#f2f2f2"/><circle cx="61.041" cy="66.959" r="1.147" fill="#f2f2f2"/><path fill="#40396e" d="M55.353,73.418c0,3.379-2.397,6.118-5.353,6.118s-5.353-2.739-5.353-6.118"/></svg>