<svg xmlns="http://www.w3.org/2000/svg"  viewBox="0 0 100 100" width="200px" height="200px"><path d="M52,94.4c-11.1,0-19.3-4.7-22.5-12.7c-8.6-0.7-15.7-7.1-19-17.5C7,53.6,8.9,44.5,15.5,38.8	c-2-8.4,1.9-17.1,10.8-23.5c5.2-3.8,10.6-5.8,15.7-5.8c3.6,0,7,1,9.9,2.8c3-1.8,6.4-2.8,9.9-2.8c5.1,0,10.6,2,15.8,5.8	c8.8,6.4,12.8,15.1,10.8,23.5c6.6,5.6,8.6,14.8,5.1,25.4C90.2,74.7,83.3,81,74.5,81.7C71.3,89.8,63.1,94.4,52,94.4z" opacity=".35"/><path fill="#f2f2f2" d="M50,92.4c-11.1,0-19.3-4.7-22.5-12.7c-8.6-0.7-15.7-7.1-19-17.5C5,51.6,6.9,42.5,13.5,36.8	c-2-8.4,1.9-17.1,10.8-23.5C29.5,9.6,34.9,7.6,40,7.6c3.6,0,7,1,9.9,2.8c3-1.8,6.4-2.8,9.9-2.8c5.1,0,10.6,2,15.8,5.8	c8.8,6.4,12.8,15.1,10.8,23.5c6.6,5.6,8.6,14.8,5.1,25.4C88.2,72.7,81.3,79,72.5,79.7C69.3,87.8,61.1,92.4,50,92.4z"/><path fill="#707cc0" d="M78.4,39.5c0.7-1.1,1.2-2.3,1.5-3.4c2-6.6-1.7-12.9-8.1-17.5c-6.4-4.6-13.5-6.2-19.2-2.3	c-0.9,0.7-1.9,1.5-2.7,2.5c-6-6.9-14.4-5.7-21.9-0.2c-6.4,4.6-10.1,10.9-8.1,17.5c0.3,1.1,0.8,2.3,1.5,3.4c-8.4,3.6-9.8,12-7,20.7	c2.8,8.8,8.9,14.7,17.9,12.7C33.2,82,40.8,85.9,50,85.9c9.2,0,16.8-4,17.6-13.1c8.9,2.1,15-3.9,17.9-12.7	C88.3,51.4,86.8,43,78.4,39.5z"/><path fill="none" stroke="#40396e" stroke-linecap="round" stroke-linejoin="round" stroke-miterlimit="10" stroke-width="3" d="M78.4,39.5c0.7-1.1,1.2-2.3,1.5-3.4c2-6.6-1.7-12.9-8.1-17.5c-6.4-4.6-13.5-6.2-19.2-2.3	c-0.9,0.7-1.9,1.5-2.7,2.5c-6-6.9-14.4-5.7-21.9-0.2c-6.4,4.6-10.1,10.9-8.1,17.5c0.3,1.1,0.8,2.3,1.5,3.4c-8.4,3.6-9.8,12-7,20.7	c2.8,8.8,8.9,14.7,17.9,12.7C33.2,82,40.8,85.9,50,85.9c9.2,0,16.8-4,17.6-13.1c8.9,2.1,15-3.9,17.9-12.7	C88.3,51.4,86.8,43,78.4,39.5z"/><path fill="#40396e" d="M77.3,37.5c-4.9-1.6-11.3-1.2-17.2,0.9c-1.4,0.5-2.8,1.2-4,1.8c0.1-0.5,0.2-1.1,0.3-1.6	c1-7.1-0.6-14.6-4.2-19.4c-0.4-0.6-0.8-1-1.1-1.4l-2.2,2c0.3,0.3,0.6,0.7,0.9,1.2c3,4.2,4.5,11,3.6,17.3c-0.2,1.7-0.6,3.4-1.2,4.8	c-0.9,0.8-1.6,1.6-2.2,2.5c-4.8-6.8-18.1-11-27.3-8c-2.7,0.9-4.9,2.2-6.7,3.9l2.1,2.1c1.4-1.4,3.2-2.5,5.5-3.2	c8-2.6,20.4,1.3,24.2,7.2c-8.2,1.9-16.9,13.7-16.9,23.8c0,0.6,0,1.2,0.1,1.8l3-0.3c0-0.5-0.1-1-0.1-1.5c0-9.2,9-21,16.1-21	s16.1,11.8,16.1,21c0,0.6,0,1.3-0.1,1.9l3,0.3c0.1-0.7,0.1-1.4,0.1-2.2c0-10.1-8.7-21.8-16.9-23.8c1.6-2.4,4.8-4.7,9-6.3	c5.3-1.9,11-2.3,15.2-0.9c0.6,0.2,1.2,0.4,1.8,0.7l1.2-2.7C78.8,38,78.1,37.7,77.3,37.5z" opacity=".35"/><circle cx="51" cy="48" r="5.5" fill="#ffe385"/></svg>