<svg xmlns="http://www.w3.org/2000/svg"  viewBox="0 0 100 100" width="200px" height="200px"><path d="M35,96c-3.229,0-5.997-2.412-6.439-5.611L21.335,38H20.5c-2.044,0-3.993-0.979-5.214-2.619	c-1.223-1.643-1.601-3.793-1.011-5.754l2.999-9.995C18.106,16.861,20.608,15,23.5,15h2.815l0.519-1.555C27.719,10.787,30.197,9,33,9	h38c2.803,0,5.281,1.787,6.167,4.446L77.685,15H80.5c2.892,0,5.394,1.861,6.226,4.631l3,10.001c0.589,1.956,0.211,4.106-1.012,5.749	C87.493,37.021,85.544,38,83.5,38h-0.835l-7.226,52.388C74.997,93.588,72.229,96,69,96H35z" opacity=".35"/><path fill="#f2f2f2" d="M33,94c-3.229,0-5.997-2.412-6.439-5.611L19.335,36H18.5c-2.044,0-3.993-0.979-5.214-2.619	c-1.223-1.643-1.601-3.793-1.011-5.754l2.999-9.995C16.106,14.861,18.608,13,21.5,13h2.815l0.519-1.555C25.719,8.787,28.197,7,31,7	h38c2.803,0,5.281,1.787,6.167,4.446L75.685,13H78.5c2.892,0,5.394,1.861,6.226,4.631l3,10.001c0.589,1.956,0.211,4.106-1.012,5.749	C85.493,35.021,83.544,36,81.5,36h-0.835l-7.226,52.388C72.997,91.588,70.229,94,67,94H33z"/><polygon fill="#d47f56" points="70.5,19.5 28.5,19.5 30.5,13.5 68.5,13.5"/><polygon fill="#d47f56" points="80.5,26.5 80.5,29.5 20,30 20,26 21.5,19.5 78,19"/><polygon fill="#ffe8d9" points="67,87.5 33,87.5 25,28 75,28"/><polyline fill="none" stroke="#40396e" stroke-linecap="round" stroke-linejoin="round" stroke-miterlimit="10" stroke-width="3" points="75,29.5 81.5,29.5 78.5,19.5 71,19.5 69,13.5 31,13.5 29,19.5 21.5,19.5 18.5,29.5 25,29.5"/><polyline fill="none" stroke="#40396e" stroke-linecap="round" stroke-linejoin="round" stroke-miterlimit="10" stroke-width="3" points="75,29.5 67,87.5 33,87.5 25,29.5"/><rect width="51.699" height="3" x="24.014" y="28" fill="#40396e" opacity=".35"/><ellipse cx="39.676" cy="53.106" fill="#40396e" rx="2.676" ry="4.588"/><ellipse cx="60.324" cy="53.106" fill="#40396e" rx="2.676" ry="4.588"/><circle cx="40.346" cy="51.959" r="1.147" fill="#f2f2f2"/><circle cx="61.041" cy="51.959" r="1.147" fill="#f2f2f2"/><path fill="#40396e" d="M55.353,58.418c0,3.379-2.397,6.118-5.353,6.118s-5.353-2.739-5.353-6.118"/></svg>